<svg id="svg" version="1.1" xmlns="http://www.w3.org/2000/svg" xmlns:xlink="http://www.w3.org/1999/xlink" width="400" height="703.7037037037037" viewBox="0, 0, 400,703.7037037037037"><g id="svgg"><path id="path0" d="M363.910 0.469 C 363.792 0.825,352.638 0.937,317.877 0.931 C 273.542 0.924,272.000 0.948,272.000 1.662 C 272.000 2.239,271.694 2.400,270.600 2.400 C 269.447 2.400,269.200 2.547,269.200 3.235 C 269.200 3.988,269.042 4.044,267.600 3.800 C 266.158 3.556,266.000 3.612,266.000 4.365 C 266.000 4.933,265.745 5.200,265.200 5.200 C 264.667 5.200,264.400 5.467,264.400 6.000 C 264.400 6.533,264.133 6.800,263.600 6.800 C 263.156 6.800,262.800 7.067,262.800 7.400 C 262.800 7.730,262.530 8.000,262.200 8.000 C 261.867 8.000,261.600 8.356,261.600 8.800 C 261.600 9.333,261.333 9.600,260.800 9.600 C 260.133 9.600,260.000 9.867,260.000 11.200 C 260.000 12.533,259.867 12.800,259.200 12.800 C 258.760 12.800,258.400 13.051,258.400 13.357 C 258.400 13.664,258.130 14.018,257.800 14.145 C 257.336 14.323,257.200 15.101,257.200 17.587 C 257.200 20.533,257.134 20.800,256.400 20.800 C 255.637 20.800,255.600 21.067,255.600 26.600 C 255.600 32.133,255.637 32.400,256.400 32.400 C 257.279 32.400,257.296 32.467,257.205 35.500 C 257.151 37.308,257.246 37.600,257.891 37.600 C 258.507 37.600,258.611 37.841,258.480 38.967 C 258.341 40.153,258.445 40.351,259.260 40.467 C 260.085 40.584,260.184 40.784,260.069 42.100 C 259.955 43.394,260.051 43.600,260.769 43.600 C 261.241 43.600,261.600 43.859,261.600 44.200 C 261.600 44.530,261.867 44.800,262.193 44.800 C 263.021 44.800,266.400 48.118,266.400 48.931 C 266.400 49.299,266.670 49.600,267.000 49.600 C 267.344 49.600,267.600 49.960,267.600 50.444 C 267.600 51.173,267.791 51.265,269.000 51.124 C 270.142 50.991,270.400 51.093,270.400 51.680 C 270.400 52.133,270.696 52.400,271.200 52.400 C 271.751 52.400,272.000 52.667,272.000 53.256 C 272.000 54.059,272.147 54.098,274.400 53.893 C 276.761 53.679,276.800 53.692,276.800 54.693 C 276.800 55.691,276.841 55.705,279.011 55.450 C 281.584 55.148,283.200 55.454,283.200 56.243 C 283.200 56.550,283.020 56.800,282.800 56.800 C 282.580 56.800,282.400 57.160,282.400 57.600 C 282.400 58.133,282.133 58.400,281.600 58.400 C 281.067 58.400,280.800 58.667,280.800 59.200 C 280.800 59.733,280.533 60.000,280.000 60.000 C 279.467 60.000,279.200 60.267,279.200 60.800 C 279.200 61.333,278.933 61.600,278.400 61.600 C 277.956 61.600,277.600 61.867,277.600 62.200 C 277.600 62.530,277.330 62.800,277.000 62.800 C 276.667 62.800,276.400 63.156,276.400 63.600 C 276.400 64.133,276.133 64.400,275.600 64.400 C 275.067 64.400,274.800 64.667,274.800 65.200 C 274.800 65.733,274.533 66.000,274.000 66.000 C 273.467 66.000,273.200 66.267,273.200 66.800 C 273.200 67.244,272.933 67.600,272.600 67.600 C 272.270 67.600,272.000 67.870,272.000 68.200 C 272.000 68.533,271.644 68.800,271.200 68.800 C 270.667 68.800,270.400 69.067,270.400 69.600 C 270.400 70.133,270.133 70.400,269.600 70.400 C 269.067 70.400,268.800 70.667,268.800 71.200 C 268.800 71.644,268.533 72.000,268.200 72.000 C 267.870 72.000,267.600 72.270,267.600 72.600 C 267.600 72.933,267.244 73.200,266.800 73.200 C 266.267 73.200,266.000 73.467,266.000 74.000 C 266.000 74.533,265.733 74.800,265.200 74.800 C 264.667 74.800,264.400 75.067,264.400 75.600 C 264.400 76.133,264.133 76.400,263.600 76.400 C 263.156 76.400,262.800 76.667,262.800 77.000 C 262.800 77.330,262.530 77.600,262.200 77.600 C 261.867 77.600,261.600 77.956,261.600 78.400 C 261.600 78.933,261.333 79.200,260.800 79.200 C 260.267 79.200,260.000 79.467,260.000 80.000 C 260.000 80.533,259.733 80.800,259.200 80.800 C 258.667 80.800,258.400 81.067,258.400 81.600 C 258.400 82.044,258.133 82.400,257.800 82.400 C 257.470 82.400,257.200 82.670,257.200 83.000 C 257.200 83.333,256.844 83.600,256.400 83.600 C 255.867 83.600,255.600 83.867,255.600 84.400 C 255.600 84.933,255.333 85.200,254.800 85.200 C 254.267 85.200,254.000 85.467,254.000 86.000 C 254.000 86.452,253.733 86.800,253.387 86.800 C 253.051 86.800,252.671 87.070,252.545 87.400 C 252.418 87.730,252.064 88.000,251.757 88.000 C 251.374 88.000,251.200 88.499,251.200 89.600 C 251.200 90.756,251.033 91.200,250.600 91.200 C 250.267 91.200,250.000 91.556,250.000 92.000 C 250.000 92.587,249.733 92.800,249.000 92.800 C 248.378 92.800,248.000 93.027,248.000 93.400 C 248.000 93.730,247.730 94.000,247.400 94.000 C 247.067 94.000,246.800 94.356,246.800 94.800 C 246.800 95.333,246.533 95.600,246.000 95.600 C 245.352 95.600,245.200 95.867,245.200 97.000 C 245.200 98.133,245.048 98.400,244.400 98.400 C 243.867 98.400,243.600 98.667,243.600 99.200 C 243.600 99.644,243.333 100.000,243.000 100.000 C 242.539 100.000,242.400 100.511,242.400 102.200 C 242.400 104.133,242.303 104.400,241.600 104.400 C 240.862 104.400,240.800 104.667,240.800 107.847 C 240.800 111.096,240.754 111.281,240.000 111.084 C 239.228 110.882,239.200 111.072,239.200 116.437 C 239.200 121.698,239.243 122.000,239.985 122.000 C 240.700 122.000,240.780 122.329,240.885 125.668 C 240.966 128.245,241.152 129.366,241.510 129.438 C 241.790 129.494,241.836 129.449,241.610 129.337 C 241.070 129.069,241.081 128.000,241.624 128.000 C 241.857 128.000,241.936 128.180,241.800 128.400 C 241.664 128.620,241.743 128.800,241.976 128.800 C 242.212 128.800,242.400 129.600,242.400 130.600 C 242.400 132.066,242.533 132.400,243.120 132.400 C 243.703 132.400,243.809 132.658,243.680 133.767 C 243.541 134.953,243.645 135.151,244.460 135.267 C 245.285 135.384,245.384 135.584,245.269 136.900 C 245.155 138.194,245.251 138.400,245.969 138.400 C 246.533 138.400,246.800 138.657,246.800 139.200 C 246.800 139.644,247.067 140.000,247.400 140.000 C 247.819 140.000,248.000 140.422,248.000 141.400 C 248.000 142.533,248.152 142.800,248.800 142.800 C 249.333 142.800,249.600 143.067,249.600 143.600 C 249.600 144.133,249.867 144.400,250.400 144.400 C 250.933 144.400,251.200 144.667,251.200 145.200 C 251.200 145.640,251.451 146.000,251.757 146.000 C 252.064 146.000,252.418 146.270,252.545 146.600 C 252.671 146.930,253.051 147.200,253.387 147.200 C 253.724 147.200,254.000 147.416,254.000 147.680 C 254.000 148.053,254.107 148.053,254.480 147.680 C 255.125 147.035,255.600 147.074,255.600 147.772 C 255.600 148.087,256.005 148.402,256.500 148.472 C 257.078 148.554,257.446 148.922,257.528 149.500 C 257.598 149.995,257.802 150.400,257.981 150.400 C 258.160 150.400,258.401 150.760,258.516 151.200 C 258.676 151.813,259.062 152.000,260.163 152.000 C 261.174 152.000,261.600 152.178,261.600 152.600 C 261.600 153.019,262.022 153.200,263.000 153.200 C 263.925 153.200,264.400 153.388,264.400 153.753 C 264.400 154.384,265.600 154.787,267.500 154.795 C 268.555 154.799,268.800 154.959,268.800 155.645 C 268.800 156.448,271.279 156.569,275.000 155.948 C 275.220 155.911,278.955 156.017,283.300 156.184 C 291.166 156.486,291.200 156.484,291.200 155.644 C 291.200 154.896,291.431 154.800,293.237 154.800 C 294.938 154.800,295.309 154.668,295.484 154.000 C 295.619 153.482,296.030 153.200,296.647 153.200 C 297.322 153.200,297.600 152.975,297.600 152.427 C 297.600 151.572,298.908 150.971,299.696 151.463 C 300.637 152.051,301.289 151.945,301.492 151.171 C 301.603 150.747,301.942 150.400,302.247 150.400 C 302.551 150.400,302.800 150.040,302.800 149.600 C 302.800 149.156,303.067 148.800,303.400 148.800 C 303.733 148.800,304.000 148.444,304.000 148.000 C 304.000 147.335,304.267 147.200,305.586 147.200 C 306.770 147.200,307.282 146.994,307.606 146.389 C 307.845 145.943,308.211 145.683,308.420 145.812 C 308.629 145.942,308.800 145.677,308.800 145.224 C 308.800 144.667,309.059 144.400,309.600 144.400 C 310.133 144.400,310.400 144.133,310.400 143.600 C 310.400 143.067,310.667 142.800,311.200 142.800 C 311.644 142.800,312.000 142.533,312.000 142.200 C 312.000 141.870,312.270 141.600,312.600 141.600 C 312.933 141.600,313.200 141.244,313.200 140.800 C 313.200 140.267,313.467 140.000,314.000 140.000 C 314.533 140.000,314.800 139.733,314.800 139.200 C 314.800 138.667,315.067 138.400,315.600 138.400 C 316.044 138.400,316.400 138.133,316.400 137.800 C 316.400 137.470,316.670 137.200,317.000 137.200 C 317.333 137.200,317.600 136.844,317.600 136.400 C 317.600 135.867,317.867 135.600,318.400 135.600 C 318.933 135.600,319.200 135.333,319.200 134.800 C 319.200 134.267,319.467 134.000,320.000 134.000 C 320.533 134.000,320.800 133.733,320.800 133.200 C 320.800 132.667,321.067 132.400,321.600 132.400 C 322.044 132.400,322.400 132.133,322.400 131.800 C 322.400 131.470,322.670 131.200,323.000 131.200 C 323.333 131.200,323.600 130.844,323.600 130.400 C 323.600 129.867,323.867 129.600,324.400 129.600 C 324.933 129.600,325.200 129.333,325.200 128.800 C 325.200 128.267,325.467 128.000,326.000 128.000 C 326.444 128.000,326.800 127.733,326.800 127.400 C 326.800 127.070,327.070 126.800,327.400 126.800 C 327.733 126.800,328.000 126.444,328.000 126.000 C 328.000 125.467,328.267 125.200,328.800 125.200 C 329.333 125.200,329.600 124.933,329.600 124.400 C 329.600 123.867,329.867 123.600,330.400 123.600 C 330.840 123.600,331.200 123.349,331.200 123.043 C 331.200 122.736,331.470 122.382,331.800 122.255 C 332.130 122.129,332.400 121.749,332.400 121.413 C 332.400 121.067,332.748 120.800,333.200 120.800 C 333.733 120.800,334.000 120.533,334.000 120.000 C 334.000 119.467,334.267 119.200,334.800 119.200 C 335.333 119.200,335.600 118.933,335.600 118.400 C 335.600 117.867,335.867 117.600,336.400 117.600 C 336.844 117.600,337.200 117.333,337.200 117.000 C 337.200 116.670,337.470 116.400,337.800 116.400 C 338.133 116.400,338.400 116.044,338.400 115.600 C 338.400 115.067,338.667 114.800,339.200 114.800 C 339.733 114.800,340.000 114.533,340.000 114.000 C 340.000 113.467,340.267 113.200,340.800 113.200 C 341.244 113.200,341.600 112.933,341.600 112.600 C 341.600 112.270,341.870 112.000,342.200 112.000 C 342.533 112.000,342.800 111.644,342.800 111.200 C 342.800 110.667,343.067 110.400,343.600 110.400 C 344.293 110.400,344.400 110.667,344.400 112.400 C 344.400 114.133,344.507 114.400,345.200 114.400 C 345.892 114.400,346.000 114.667,346.000 116.372 C 346.000 118.113,346.106 118.359,346.900 118.472 C 347.697 118.585,347.785 118.796,347.673 120.302 C 347.579 121.562,347.709 122.067,348.173 122.245 C 348.572 122.398,348.800 122.979,348.800 123.843 C 348.800 124.933,348.957 125.200,349.600 125.200 C 350.133 125.200,350.400 125.467,350.400 126.000 C 350.400 126.533,350.667 126.800,351.200 126.800 C 351.640 126.800,352.000 126.980,352.000 127.200 C 352.000 127.420,352.225 127.602,352.500 127.604 C 352.775 127.606,353.630 128.324,354.400 129.200 C 355.170 130.076,356.025 130.794,356.300 130.796 C 356.575 130.798,356.800 131.160,356.800 131.600 C 356.800 132.040,356.980 132.400,357.200 132.400 C 357.420 132.400,357.600 132.774,357.600 133.231 C 357.600 133.960,357.807 134.046,359.300 133.939 C 360.764 133.835,361.000 133.927,361.001 134.604 C 361.001 135.036,361.316 135.450,361.701 135.524 C 362.085 135.598,362.400 136.005,362.400 136.429 C 362.400 137.262,364.176 137.470,365.800 136.827 C 366.880 136.400,367.600 136.726,367.600 137.643 C 367.600 138.359,368.010 138.400,375.200 138.400 C 381.540 138.400,382.800 138.305,382.800 137.825 C 382.800 137.469,383.295 137.203,384.100 137.125 C 385.102 137.029,385.430 136.791,385.529 136.087 C 385.643 135.284,385.819 135.205,386.997 135.426 C 388.181 135.648,388.350 135.570,388.467 134.745 C 388.586 133.912,388.781 133.826,390.300 133.937 C 391.794 134.046,392.000 133.961,392.000 133.231 C 392.000 132.759,392.259 132.400,392.600 132.400 C 392.930 132.400,393.200 132.130,393.200 131.800 C 393.200 131.470,393.464 131.200,393.787 131.200 C 394.147 131.200,394.285 130.966,394.143 130.595 C 393.866 129.873,394.663 128.800,395.478 128.800 C 396.075 128.800,397.362 127.710,397.450 127.129 C 397.478 126.948,397.523 125.990,397.550 125.000 C 397.592 123.501,397.730 123.200,398.378 123.200 C 399.108 123.200,399.155 122.889,399.143 118.112 C 399.134 114.791,399.281 112.973,399.565 112.878 C 400.194 112.669,400.135 107.721,399.500 107.465 C 399.100 107.304,399.100 107.257,399.500 107.232 C 400.116 107.193,400.225 98.144,399.611 97.933 C 399.363 97.848,399.208 83.266,399.182 57.700 C 399.142 18.395,399.125 17.600,398.370 17.600 C 397.689 17.600,397.600 17.300,397.600 15.000 C 397.600 12.956,397.472 12.400,397.000 12.400 C 396.670 12.400,396.400 12.130,396.400 11.800 C 396.400 11.467,396.044 11.200,395.600 11.200 C 394.933 11.200,394.800 10.933,394.800 9.600 C 394.800 8.267,394.667 8.000,394.000 8.000 C 393.556 8.000,393.200 7.733,393.200 7.400 C 393.200 7.070,392.930 6.800,392.600 6.800 C 392.258 6.800,392.000 6.441,392.000 5.966 C 392.000 5.230,391.800 5.147,390.300 5.266 C 388.753 5.388,388.604 5.319,388.648 4.500 C 388.674 4.005,388.468 3.600,388.191 3.600 C 387.913 3.600,387.582 3.330,387.455 3.000 C 387.311 2.623,386.699 2.400,385.813 2.400 C 384.653 2.400,384.400 2.252,384.400 1.576 C 384.400 0.793,384.210 0.759,380.534 0.876 C 377.706 0.967,376.623 0.866,376.500 0.500 C 376.269 -0.191,364.140 -0.221,363.910 0.469 " stroke="none" fill="#052440" fill-rule="evenodd"></path><path id="path1" d="M280.800 0.400 C 280.800 0.920,278.393 0.871,309.000 0.977 C 340.372 1.087,364.000 0.811,364.000 0.336 C 364.000 0.151,345.280 0.000,322.400 0.000 C 294.933 0.000,280.800 0.136,280.800 0.400 M376.400 0.357 C 376.400 0.855,378.311 1.282,379.234 0.989 C 380.614 0.551,380.037 0.000,378.200 0.000 C 377.210 0.000,376.400 0.160,376.400 0.357 M267.600 3.200 C 267.600 3.733,267.867 4.000,268.400 4.000 C 268.933 4.000,269.200 3.733,269.200 3.200 C 269.200 2.667,268.933 2.400,268.400 2.400 C 267.867 2.400,267.600 2.667,267.600 3.200 M388.698 3.900 C 388.424 4.449,388.595 5.332,389.000 5.460 C 389.708 5.685,390.524 4.901,390.271 4.240 C 390.020 3.586,388.968 3.359,388.698 3.900 M394.800 10.371 C 394.800 10.943,395.057 11.200,395.629 11.200 C 396.202 11.200,396.417 10.985,396.325 10.505 C 396.124 9.462,394.800 9.346,394.800 10.371 M258.400 12.000 C 258.400 12.533,258.667 12.800,259.200 12.800 C 259.733 12.800,260.000 12.533,260.000 12.000 C 260.000 11.467,259.733 11.200,259.200 11.200 C 258.667 11.200,258.400 11.467,258.400 12.000 M397.600 16.600 C 397.600 17.333,397.813 17.600,398.400 17.600 C 398.987 17.600,399.200 17.333,399.200 16.600 C 399.200 15.867,398.987 15.600,398.400 15.600 C 397.813 15.600,397.600 15.867,397.600 16.600 M255.600 19.600 C 255.600 20.533,255.778 20.800,256.400 20.800 C 257.022 20.800,257.200 20.533,257.200 19.600 C 257.200 18.667,257.022 18.400,256.400 18.400 C 255.778 18.400,255.600 18.667,255.600 19.600 M399.143 23.300 C 398.793 24.526,399.258 98.000,399.616 98.000 C 399.859 98.000,400.000 84.178,400.000 60.400 C 400.000 27.222,399.852 20.817,399.143 23.300 M255.600 33.600 C 255.600 34.957,256.962 35.360,257.288 34.100 C 257.564 33.038,257.218 32.400,256.367 32.400 C 255.781 32.400,255.600 32.684,255.600 33.600 M257.271 38.267 C 257.463 39.257,258.267 39.354,258.512 38.416 C 258.673 37.798,258.533 37.600,257.933 37.600 C 257.409 37.600,257.185 37.825,257.271 38.267 M258.472 41.264 C 258.621 42.269,259.838 42.599,260.174 41.724 C 260.490 40.900,260.103 40.400,259.149 40.400 C 258.552 40.400,258.377 40.623,258.472 41.264 M261.600 45.613 C 261.600 46.059,261.870 46.529,262.200 46.655 C 262.530 46.782,262.800 47.136,262.800 47.443 C 262.800 47.749,263.160 48.000,263.600 48.000 C 264.133 48.000,264.400 48.267,264.400 48.800 C 264.400 49.387,264.667 49.600,265.400 49.600 C 266.933 49.600,266.643 48.495,264.593 46.531 C 262.630 44.651,261.600 44.334,261.600 45.613 M269.500 51.076 C 268.535 51.328,268.616 52.400,269.600 52.400 C 270.133 52.400,270.400 52.133,270.400 51.600 C 270.400 51.160,270.355 50.821,270.300 50.846 C 270.245 50.872,269.885 50.975,269.500 51.076 M275.300 53.865 C 274.337 54.253,274.725 55.600,275.800 55.600 C 276.600 55.600,276.800 55.400,276.800 54.600 C 276.800 53.640,276.374 53.432,275.300 53.865 M279.329 55.840 C 279.045 56.582,279.820 57.185,281.067 57.194 C 283.125 57.208,284.038 55.918,282.300 55.452 C 280.727 55.030,279.583 55.180,279.329 55.840 M249.726 90.363 C 249.616 90.783,249.183 91.216,248.763 91.326 C 247.611 91.627,247.799 92.800,249.000 92.800 C 249.733 92.800,250.000 92.587,250.000 92.000 C 250.000 91.556,250.267 91.200,250.600 91.200 C 250.933 91.200,251.200 90.844,251.200 90.400 C 251.200 89.372,249.993 89.341,249.726 90.363 M243.867 97.467 C 243.360 97.974,243.603 98.400,244.400 98.400 C 244.844 98.400,245.200 98.133,245.200 97.800 C 245.200 97.191,244.354 96.979,243.867 97.467 M239.345 109.400 C 239.019 110.249,239.464 111.200,240.187 111.200 C 240.601 111.200,240.800 110.811,240.800 110.000 C 240.800 108.713,239.771 108.289,239.345 109.400 M399.110 115.500 C 398.919 118.323,399.045 119.200,399.643 119.200 C 399.839 119.200,400.000 117.760,400.000 116.000 C 400.000 112.110,399.364 111.752,399.110 115.500 M344.400 115.400 C 344.400 116.133,344.613 116.400,345.200 116.400 C 345.787 116.400,346.000 116.133,346.000 115.400 C 346.000 114.667,345.787 114.400,345.200 114.400 C 344.613 114.400,344.400 114.667,344.400 115.400 M346.000 119.600 C 346.000 121.020,347.378 121.329,347.799 120.004 C 348.124 118.979,347.755 118.400,346.776 118.400 C 346.180 118.400,346.000 118.679,346.000 119.600 M239.373 122.700 C 239.525 123.739,240.800 123.855,240.800 122.829 C 240.800 122.279,240.542 122.000,240.035 122.000 C 239.535 122.000,239.306 122.242,239.373 122.700 M397.600 124.200 C 397.600 124.933,397.813 125.200,398.400 125.200 C 398.987 125.200,399.200 124.933,399.200 124.200 C 399.200 123.467,398.987 123.200,398.400 123.200 C 397.813 123.200,397.600 123.467,397.600 124.200 M352.000 128.600 C 352.000 129.185,352.230 129.600,352.553 129.600 C 352.858 129.600,353.201 129.960,353.316 130.400 C 353.431 130.840,353.812 131.200,354.163 131.200 C 354.513 131.200,354.800 131.470,354.800 131.800 C 354.800 132.173,355.178 132.400,355.800 132.400 C 356.533 132.400,356.800 132.187,356.800 131.600 C 356.800 131.160,356.575 130.798,356.300 130.796 C 356.025 130.794,355.170 130.076,354.400 129.200 C 352.789 127.368,352.000 127.171,352.000 128.600 M241.107 128.714 C 240.977 129.210,241.146 129.429,241.660 129.429 C 242.067 129.429,242.400 129.287,242.400 129.114 C 242.400 128.941,242.209 128.800,241.976 128.800 C 241.743 128.800,241.664 128.620,241.800 128.400 C 241.936 128.180,241.878 128.000,241.670 128.000 C 241.463 128.000,241.209 128.321,241.107 128.714 M394.404 129.395 C 393.693 130.252,394.209 131.200,395.387 131.200 C 396.246 131.200,396.400 131.017,396.400 130.000 C 396.400 128.657,395.295 128.322,394.404 129.395 M242.400 133.200 C 242.400 133.640,242.649 134.000,242.953 134.000 C 243.258 134.000,243.601 133.640,243.716 133.200 C 243.871 132.607,243.728 132.400,243.163 132.400 C 242.667 132.400,242.400 132.680,242.400 133.200 M359.877 133.904 C 358.915 134.122,359.178 135.367,360.218 135.517 C 360.787 135.598,361.045 135.393,361.088 134.824 C 361.159 133.887,360.882 133.677,359.877 133.904 M388.623 133.910 C 387.980 134.554,388.461 135.600,389.400 135.600 C 390.113 135.600,390.400 135.384,390.400 134.847 C 390.400 134.129,389.093 133.440,388.623 133.910 M243.672 136.064 C 243.821 137.069,245.038 137.399,245.374 136.524 C 245.690 135.700,245.303 135.200,244.349 135.200 C 243.752 135.200,243.577 135.423,243.672 136.064 M385.504 136.191 C 385.344 137.027,385.458 137.170,386.233 137.106 C 387.288 137.018,387.803 135.764,386.923 135.426 C 385.925 135.043,385.700 135.165,385.504 136.191 M365.900 136.703 C 364.628 136.986,365.045 138.400,366.400 138.400 C 367.311 138.400,367.600 138.217,367.600 137.643 C 367.600 136.809,366.976 136.464,365.900 136.703 M254.441 147.751 C 254.081 148.184,254.156 148.348,254.792 148.514 C 255.278 148.641,255.600 149.059,255.600 149.563 C 255.600 150.195,255.851 150.400,256.628 150.400 C 257.996 150.400,257.881 148.668,256.500 148.472 C 256.005 148.402,255.600 148.087,255.600 147.772 C 255.600 147.047,255.034 147.036,254.441 147.751 M304.000 148.000 C 304.000 148.587,304.267 148.800,305.000 148.800 C 305.733 148.800,306.000 148.587,306.000 148.000 C 306.000 147.413,305.733 147.200,305.000 147.200 C 304.267 147.200,304.000 147.413,304.000 148.000 M298.100 151.460 C 297.009 151.910,297.549 153.200,298.828 153.200 C 299.871 153.200,300.036 153.065,299.928 152.304 C 299.801 151.412,299.053 151.067,298.100 151.460 M273.969 156.087 C 271.493 157.011,273.216 157.600,278.400 157.600 C 283.278 157.600,283.600 157.552,283.600 156.825 C 283.600 155.999,275.807 155.401,273.969 156.087 M166.800 200.000 C 166.800 200.776,166.533 200.800,157.800 200.800 C 150.067 200.800,148.800 200.884,148.800 201.400 C 148.800 201.891,148.115 202.000,145.033 202.000 C 140.930 202.000,140.000 202.193,140.000 203.043 C 140.000 203.477,139.214 203.600,136.427 203.600 C 133.205 203.600,132.829 203.679,132.600 204.400 C 132.378 205.099,131.995 205.200,129.573 205.200 C 127.067 205.200,126.800 205.277,126.800 206.000 C 126.800 206.729,126.533 206.800,123.800 206.800 C 121.400 206.800,120.800 206.920,120.800 207.400 C 120.800 207.861,120.289 208.000,118.600 208.000 C 116.667 208.000,116.400 208.097,116.400 208.800 C 116.400 209.503,116.133 209.600,114.200 209.600 C 112.267 209.600,112.000 209.697,112.000 210.400 C 112.000 211.067,111.733 211.200,110.400 211.200 C 109.244 211.200,108.800 211.367,108.800 211.800 C 108.800 212.219,108.378 212.400,107.400 212.400 C 106.267 212.400,106.000 212.552,106.000 213.200 C 106.000 213.903,105.733 214.000,103.800 214.000 C 101.867 214.000,101.600 214.097,101.600 214.800 C 101.600 215.467,101.333 215.600,100.000 215.600 C 98.667 215.600,98.400 215.733,98.400 216.400 C 98.400 217.048,98.133 217.200,97.000 217.200 C 96.022 217.200,95.600 217.381,95.600 217.800 C 95.600 218.217,95.181 218.400,94.227 218.400 C 93.205 218.400,92.789 218.605,92.600 219.200 C 92.411 219.795,91.995 220.000,90.973 220.000 C 89.867 220.000,89.600 220.155,89.600 220.800 C 89.600 221.448,89.333 221.600,88.200 221.600 C 87.222 221.600,86.800 221.781,86.800 222.200 C 86.800 222.633,86.356 222.800,85.200 222.800 C 83.867 222.800,83.600 222.933,83.600 223.600 C 83.600 224.248,83.333 224.400,82.200 224.400 C 81.067 224.400,80.800 224.552,80.800 225.200 C 80.800 225.733,80.533 226.000,80.000 226.000 C 79.556 226.000,79.200 226.267,79.200 226.600 C 79.200 227.019,78.778 227.200,77.800 227.200 C 76.667 227.200,76.400 227.352,76.400 228.000 C 76.400 228.533,76.133 228.800,75.600 228.800 C 75.067 228.800,74.800 229.067,74.800 229.600 C 74.800 230.133,74.533 230.400,74.000 230.400 C 73.467 230.400,73.200 230.667,73.200 231.200 C 73.200 231.848,72.933 232.000,71.800 232.000 C 70.822 232.000,70.400 232.181,70.400 232.600 C 70.400 232.933,70.044 233.200,69.600 233.200 C 69.067 233.200,68.800 233.467,68.800 234.000 C 68.800 234.444,68.533 234.800,68.200 234.800 C 67.867 234.800,67.600 235.156,67.600 235.600 C 67.600 236.267,67.333 236.400,66.000 236.400 C 64.904 236.400,64.400 236.574,64.400 236.953 C 64.400 237.258,64.040 237.601,63.600 237.716 C 63.160 237.831,62.800 238.212,62.800 238.563 C 62.800 238.913,62.530 239.200,62.200 239.200 C 61.867 239.200,61.600 239.556,61.600 240.000 C 61.600 240.533,61.333 240.800,60.800 240.800 C 60.271 240.800,60.000 241.067,60.000 241.587 C 60.000 242.136,59.811 242.302,59.376 242.135 C 58.959 241.976,58.678 242.179,58.529 242.748 C 58.407 243.217,58.058 243.600,57.753 243.600 C 57.449 243.600,57.200 243.960,57.200 244.400 C 57.200 245.067,56.933 245.200,55.600 245.200 C 54.267 245.200,54.000 245.333,54.000 246.000 C 54.000 246.440,53.749 246.800,53.443 246.800 C 53.136 246.800,52.782 247.070,52.655 247.400 C 52.529 247.730,52.149 248.000,51.813 248.000 C 51.467 248.000,51.200 248.348,51.200 248.800 C 51.200 249.333,50.933 249.600,50.400 249.600 C 49.867 249.600,49.600 249.867,49.600 250.400 C 49.600 250.933,49.333 251.200,48.800 251.200 C 48.356 251.200,48.000 251.467,48.000 251.800 C 48.000 252.130,47.730 252.400,47.400 252.400 C 47.067 252.400,46.800 252.756,46.800 253.200 C 46.800 253.733,46.533 254.000,46.000 254.000 C 45.333 254.000,45.200 254.267,45.200 255.600 C 45.200 257.162,45.167 257.200,43.800 257.200 C 42.467 257.200,42.400 257.267,42.400 258.600 C 42.400 259.733,42.248 260.000,41.600 260.000 C 41.067 260.000,40.800 260.267,40.800 260.800 C 40.800 261.333,40.533 261.600,40.000 261.600 C 39.560 261.600,39.200 261.849,39.200 262.153 C 39.200 262.458,38.840 262.801,38.400 262.916 C 37.960 263.031,37.600 263.412,37.600 263.763 C 37.600 264.113,37.330 264.400,37.000 264.400 C 36.581 264.400,36.400 264.822,36.400 265.800 C 36.400 266.933,36.248 267.200,35.600 267.200 C 35.067 267.200,34.800 267.467,34.800 268.000 C 34.800 268.533,34.533 268.800,34.000 268.800 C 33.467 268.800,33.200 269.067,33.200 269.600 C 33.200 270.044,32.933 270.400,32.600 270.400 C 32.181 270.400,32.000 270.822,32.000 271.800 C 32.000 272.933,31.848 273.200,31.200 273.200 C 30.667 273.200,30.400 273.467,30.400 274.000 C 30.400 274.533,30.133 274.800,29.600 274.800 C 29.067 274.800,28.800 275.067,28.800 275.600 C 28.800 276.044,28.533 276.400,28.200 276.400 C 27.781 276.400,27.600 276.822,27.600 277.800 C 27.600 278.933,27.448 279.200,26.800 279.200 C 26.267 279.200,26.000 279.467,26.000 280.000 C 26.000 280.533,25.733 280.800,25.200 280.800 C 24.552 280.800,24.400 281.067,24.400 282.200 C 24.400 283.333,24.248 283.600,23.600 283.600 C 22.933 283.600,22.800 283.867,22.800 285.200 C 22.800 286.356,22.633 286.800,22.200 286.800 C 21.870 286.800,21.600 287.070,21.600 287.400 C 21.600 287.733,21.244 288.000,20.800 288.000 C 20.133 288.000,20.000 288.267,20.000 289.600 C 20.000 290.933,19.867 291.200,19.200 291.200 C 18.552 291.200,18.400 291.467,18.400 292.600 C 18.400 293.578,18.219 294.000,17.800 294.000 C 17.339 294.000,17.200 294.511,17.200 296.200 C 17.200 298.133,17.103 298.400,16.400 298.400 C 15.733 298.400,15.600 298.667,15.600 300.000 C 15.600 301.333,15.467 301.600,14.800 301.600 C 14.152 301.600,14.000 301.867,14.000 303.000 C 14.000 303.930,13.813 304.400,13.443 304.400 C 12.723 304.400,12.400 305.278,12.400 307.233 C 12.400 308.359,12.231 308.800,11.800 308.800 C 11.367 308.800,11.200 309.244,11.200 310.400 C 11.200 311.733,11.067 312.000,10.400 312.000 C 9.697 312.000,9.600 312.267,9.600 314.200 C 9.600 316.133,9.503 316.400,8.800 316.400 C 8.097 316.400,8.000 316.667,8.000 318.600 C 8.000 320.289,7.861 320.800,7.400 320.800 C 6.939 320.800,6.800 321.311,6.800 323.000 C 6.800 324.933,6.703 325.200,6.000 325.200 C 5.271 325.200,5.200 325.467,5.200 328.200 C 5.200 330.933,5.129 331.200,4.400 331.200 C 3.677 331.200,3.600 331.467,3.600 333.957 C 3.600 336.039,3.453 336.771,3.000 336.945 C 2.517 337.130,2.400 338.034,2.400 341.587 C 2.400 345.733,2.352 346.000,1.600 346.000 C 0.848 346.000,0.800 346.267,0.800 350.400 C 0.800 353.067,0.642 354.800,0.400 354.800 C 0.139 354.800,0.000 361.733,0.000 374.800 C 0.000 387.867,0.139 394.800,0.400 394.800 C 0.648 394.800,0.800 396.991,0.800 400.573 C 0.800 405.995,0.849 406.362,1.600 406.600 C 2.336 406.834,2.400 407.205,2.400 411.227 C 2.400 414.847,2.503 415.600,3.000 415.600 C 3.455 415.600,3.600 416.093,3.600 417.637 C 3.600 419.338,3.732 419.709,4.400 419.884 C 5.109 420.069,5.200 420.430,5.200 423.047 C 5.200 425.733,5.272 426.000,6.000 426.000 C 6.703 426.000,6.800 426.267,6.800 428.200 C 6.800 429.889,6.939 430.400,7.400 430.400 C 7.861 430.400,8.000 430.911,8.000 432.600 C 8.000 434.533,8.097 434.800,8.800 434.800 C 9.503 434.800,9.600 435.067,9.600 437.000 C 9.600 438.933,9.697 439.200,10.400 439.200 C 11.103 439.200,11.200 439.467,11.200 441.400 C 11.200 443.089,11.339 443.600,11.800 443.600 C 12.130 443.600,12.400 443.945,12.400 444.367 C 12.400 445.559,12.831 446.400,13.443 446.400 C 13.826 446.400,14.000 446.899,14.000 448.000 C 14.000 449.333,14.133 449.600,14.800 449.600 C 15.503 449.600,15.600 449.867,15.600 451.800 C 15.600 453.733,15.697 454.000,16.400 454.000 C 16.933 454.000,17.200 454.267,17.200 454.800 C 17.200 455.244,17.467 455.600,17.800 455.600 C 18.219 455.600,18.400 456.022,18.400 457.000 C 18.400 458.133,18.552 458.400,19.200 458.400 C 19.852 458.400,20.000 458.667,20.000 459.837 C 20.000 460.938,20.187 461.324,20.800 461.484 C 21.401 461.641,21.600 462.030,21.600 463.047 C 21.600 463.983,21.785 464.400,22.200 464.400 C 22.619 464.400,22.800 464.822,22.800 465.800 C 22.800 466.933,22.952 467.200,23.600 467.200 C 24.133 467.200,24.400 467.467,24.400 468.000 C 24.400 468.533,24.667 468.800,25.200 468.800 C 25.848 468.800,26.000 469.067,26.000 470.200 C 26.000 471.333,26.152 471.600,26.800 471.600 C 27.333 471.600,27.600 471.867,27.600 472.400 C 27.600 472.844,27.867 473.200,28.200 473.200 C 28.622 473.200,28.800 473.626,28.800 474.637 C 28.800 475.738,28.987 476.124,29.600 476.284 C 30.040 476.399,30.400 476.742,30.400 477.047 C 30.400 477.351,30.760 477.600,31.200 477.600 C 31.867 477.600,32.000 477.867,32.000 479.200 C 32.000 480.356,32.167 480.800,32.600 480.800 C 32.930 480.800,33.200 481.070,33.200 481.400 C 33.200 481.733,33.556 482.000,34.000 482.000 C 34.533 482.000,34.800 482.267,34.800 482.800 C 34.800 483.333,35.067 483.600,35.600 483.600 C 36.248 483.600,36.400 483.867,36.400 485.000 C 36.400 485.978,36.581 486.400,37.000 486.400 C 37.333 486.400,37.600 486.756,37.600 487.200 C 37.600 487.733,37.867 488.000,38.400 488.000 C 38.933 488.000,39.200 488.267,39.200 488.800 C 39.200 489.333,39.467 489.600,40.000 489.600 C 40.533 489.600,40.800 489.867,40.800 490.400 C 40.800 490.933,41.067 491.200,41.600 491.200 C 42.044 491.200,42.400 491.467,42.400 491.800 C 42.400 492.130,42.670 492.400,43.000 492.400 C 43.333 492.400,43.600 492.756,43.600 493.200 C 43.600 493.733,43.867 494.000,44.400 494.000 C 45.048 494.000,45.200 494.267,45.200 495.400 C 45.200 496.533,45.352 496.800,46.000 496.800 C 46.533 496.800,46.800 497.067,46.800 497.600 C 46.800 498.044,47.067 498.400,47.400 498.400 C 47.733 498.400,48.000 498.756,48.000 499.200 C 48.000 499.733,48.267 500.000,48.800 500.000 C 49.240 500.000,49.600 500.258,49.600 500.573 C 49.600 500.888,49.960 501.260,50.400 501.400 C 50.840 501.540,51.200 501.912,51.200 502.227 C 51.200 502.542,51.458 502.800,51.773 502.800 C 52.088 502.800,52.460 503.160,52.600 503.600 C 52.740 504.040,53.112 504.400,53.427 504.400 C 53.742 504.400,54.000 504.760,54.000 505.200 C 54.000 505.733,54.267 506.000,54.800 506.000 C 55.244 506.000,55.600 506.267,55.600 506.600 C 55.600 507.019,56.022 507.200,57.000 507.200 C 58.133 507.200,58.400 507.352,58.400 508.000 C 58.400 508.533,58.667 508.800,59.200 508.800 C 59.733 508.800,60.000 509.067,60.000 509.600 C 60.000 510.133,60.267 510.400,60.800 510.400 C 61.244 510.400,61.600 510.667,61.600 511.000 C 61.600 511.330,61.870 511.600,62.200 511.600 C 62.533 511.600,62.800 511.956,62.800 512.400 C 62.800 513.067,63.067 513.200,64.400 513.200 C 65.733 513.200,66.000 513.333,66.000 514.000 C 66.000 514.533,66.267 514.800,66.800 514.800 C 67.341 514.800,67.600 515.067,67.600 515.624 C 67.600 516.105,67.777 516.338,68.027 516.183 C 68.262 516.038,68.553 516.297,68.674 516.760 C 68.799 517.238,69.218 517.600,69.647 517.600 C 70.133 517.600,70.400 517.883,70.400 518.400 C 70.400 519.048,70.667 519.200,71.800 519.200 C 72.814 519.200,73.200 519.376,73.200 519.837 C 73.200 520.188,73.560 520.569,74.000 520.684 C 74.440 520.799,74.800 521.142,74.800 521.447 C 74.800 521.812,75.275 522.000,76.200 522.000 C 77.472 522.000,77.805 522.299,77.647 523.300 C 77.621 523.465,77.960 523.600,78.400 523.600 C 78.933 523.600,79.200 523.867,79.200 524.400 C 79.200 525.067,79.467 525.200,80.800 525.200 C 81.956 525.200,82.400 525.367,82.400 525.800 C 82.400 526.219,82.822 526.400,83.800 526.400 C 84.933 526.400,85.200 526.552,85.200 527.200 C 85.200 527.848,85.467 528.000,86.600 528.000 C 87.733 528.000,88.000 528.152,88.000 528.800 C 88.000 529.467,88.267 529.600,89.600 529.600 C 90.933 529.600,91.200 529.733,91.200 530.400 C 91.200 531.048,91.467 531.200,92.600 531.200 C 93.578 531.200,94.000 531.381,94.000 531.800 C 94.000 532.233,94.444 532.400,95.600 532.400 C 96.933 532.400,97.200 532.533,97.200 533.200 C 97.200 533.848,97.467 534.000,98.600 534.000 C 99.733 534.000,100.000 534.152,100.000 534.800 C 100.000 535.448,100.267 535.600,101.400 535.600 C 102.378 535.600,102.800 535.781,102.800 536.200 C 102.800 536.667,103.333 536.800,105.200 536.800 C 107.333 536.800,107.600 536.889,107.600 537.600 C 107.600 538.248,107.867 538.400,109.000 538.400 C 110.133 538.400,110.400 538.552,110.400 539.200 C 110.400 539.903,110.667 540.000,112.600 540.000 C 114.289 540.000,114.800 540.139,114.800 540.600 C 114.800 541.061,115.311 541.200,117.000 541.200 C 118.933 541.200,119.200 541.297,119.200 542.000 C 119.200 542.729,119.467 542.800,122.200 542.800 C 124.933 542.800,125.200 542.871,125.200 543.600 C 125.200 544.303,125.467 544.400,127.400 544.400 C 129.333 544.400,129.600 544.497,129.600 545.200 C 129.600 545.944,129.867 546.000,133.400 546.000 C 136.511 546.000,137.200 546.109,137.200 546.600 C 137.200 547.089,137.867 547.200,140.800 547.200 C 144.133 547.200,144.400 547.259,144.400 548.000 C 144.400 548.776,144.667 548.800,153.400 548.800 C 162.133 548.800,162.400 548.824,162.400 549.600 C 162.400 550.381,162.667 550.400,173.400 550.400 C 184.133 550.400,184.400 550.381,184.400 549.600 C 184.400 548.829,184.667 548.800,191.800 548.800 C 198.933 548.800,199.200 548.771,199.200 548.000 C 199.200 547.256,199.467 547.200,203.000 547.200 C 206.111 547.200,206.800 547.091,206.800 546.600 C 206.800 546.111,207.467 546.000,210.400 546.000 C 213.733 546.000,214.000 545.941,214.000 545.200 C 214.000 544.471,214.267 544.400,217.000 544.400 C 219.733 544.400,220.000 544.329,220.000 543.600 C 220.000 542.897,220.267 542.800,222.200 542.800 C 224.133 542.800,224.400 542.703,224.400 542.000 C 224.400 541.297,224.667 541.200,226.600 541.200 C 228.289 541.200,228.800 541.061,228.800 540.600 C 228.800 540.139,229.311 540.000,231.000 540.000 C 232.933 540.000,233.200 539.903,233.200 539.200 C 233.200 538.497,233.467 538.400,235.400 538.400 C 237.333 538.400,237.600 538.303,237.600 537.600 C 237.600 536.933,237.867 536.800,239.200 536.800 C 240.356 536.800,240.800 536.633,240.800 536.200 C 240.800 535.781,241.222 535.600,242.200 535.600 C 243.333 535.600,243.600 535.448,243.600 534.800 C 243.600 534.097,243.867 534.000,245.800 534.000 C 247.733 534.000,248.000 533.903,248.000 533.200 C 248.000 532.533,248.267 532.400,249.600 532.400 C 250.756 532.400,251.200 532.233,251.200 531.800 C 251.200 531.381,251.622 531.200,252.600 531.200 C 253.733 531.200,254.000 531.048,254.000 530.400 C 254.000 529.733,254.267 529.600,255.600 529.600 C 256.933 529.600,257.200 529.467,257.200 528.800 C 257.200 528.152,257.467 528.000,258.600 528.000 C 259.733 528.000,260.000 527.848,260.000 527.200 C 260.000 526.667,260.267 526.400,260.800 526.400 C 261.244 526.400,261.600 526.133,261.600 525.800 C 261.600 525.381,262.022 525.200,263.000 525.200 C 264.133 525.200,264.400 525.048,264.400 524.400 C 264.400 523.755,264.667 523.600,265.773 523.600 C 266.795 523.600,267.211 523.395,267.400 522.800 C 267.540 522.360,267.912 522.000,268.227 522.000 C 268.542 522.000,268.800 521.730,268.800 521.400 C 268.800 520.978,269.226 520.800,270.237 520.800 C 271.338 520.800,271.724 520.613,271.884 520.000 C 271.999 519.560,272.342 519.200,272.647 519.200 C 272.951 519.200,273.200 518.840,273.200 518.400 C 273.200 517.867,273.467 517.600,274.000 517.600 C 274.444 517.600,274.800 517.333,274.800 517.000 C 274.800 516.581,275.222 516.400,276.200 516.400 C 277.333 516.400,277.600 516.248,277.600 515.600 C 277.600 515.067,277.867 514.800,278.400 514.800 C 278.933 514.800,279.200 514.533,279.200 514.000 C 279.200 513.333,279.467 513.200,280.800 513.200 C 282.133 513.200,282.400 513.067,282.400 512.400 C 282.400 511.956,282.667 511.600,283.000 511.600 C 283.330 511.600,283.600 511.330,283.600 511.000 C 283.600 510.667,283.956 510.400,284.400 510.400 C 284.933 510.400,285.200 510.133,285.200 509.600 C 285.200 509.067,285.467 508.800,286.000 508.800 C 286.533 508.800,286.800 508.533,286.800 508.000 C 286.800 507.556,287.067 507.200,287.400 507.200 C 287.730 507.200,288.000 506.930,288.000 506.600 C 288.000 506.267,288.356 506.000,288.800 506.000 C 289.333 506.000,289.600 505.733,289.600 505.200 C 289.600 504.667,289.867 504.400,290.400 504.400 C 290.933 504.400,291.200 504.133,291.200 503.600 C 291.200 503.156,291.467 502.800,291.800 502.800 C 292.130 502.800,292.400 502.542,292.400 502.227 C 292.400 501.912,292.760 501.540,293.200 501.400 C 293.640 501.260,294.000 500.888,294.000 500.573 C 294.000 500.258,294.360 500.000,294.800 500.000 C 295.333 500.000,295.600 499.733,295.600 499.200 C 295.600 498.667,295.867 498.400,296.400 498.400 C 296.933 498.400,297.200 498.133,297.200 497.600 C 297.200 497.156,297.467 496.800,297.800 496.800 C 298.130 496.800,298.400 496.530,298.400 496.200 C 298.400 495.867,298.756 495.600,299.200 495.600 C 299.733 495.600,300.000 495.333,300.000 494.800 C 300.000 494.267,300.267 494.000,300.800 494.000 C 301.333 494.000,301.600 493.733,301.600 493.200 C 301.600 492.756,301.867 492.400,302.200 492.400 C 302.530 492.400,302.800 492.130,302.800 491.800 C 302.800 491.467,303.156 491.200,303.600 491.200 C 304.133 491.200,304.400 490.933,304.400 490.400 C 304.400 489.867,304.667 489.600,305.200 489.600 C 305.733 489.600,306.000 489.333,306.000 488.800 C 306.000 488.360,306.258 488.000,306.573 488.000 C 306.888 488.000,307.260 487.640,307.400 487.200 C 307.540 486.760,307.912 486.400,308.227 486.400 C 308.615 486.400,308.800 485.949,308.800 485.000 C 308.800 483.867,308.952 483.600,309.600 483.600 C 310.133 483.600,310.400 483.333,310.400 482.800 C 310.400 482.267,310.667 482.000,311.200 482.000 C 311.848 482.000,312.000 481.733,312.000 480.600 C 312.000 479.622,312.181 479.200,312.600 479.200 C 312.933 479.200,313.200 478.844,313.200 478.400 C 313.200 477.867,313.467 477.600,314.000 477.600 C 314.440 477.600,314.800 477.351,314.800 477.047 C 314.800 476.742,315.160 476.399,315.600 476.284 C 316.213 476.124,316.400 475.738,316.400 474.637 C 316.400 473.626,316.578 473.200,317.000 473.200 C 317.333 473.200,317.600 472.844,317.600 472.400 C 317.600 471.867,317.867 471.600,318.400 471.600 C 319.048 471.600,319.200 471.333,319.200 470.200 C 319.200 469.067,319.352 468.800,320.000 468.800 C 320.533 468.800,320.800 468.533,320.800 468.000 C 320.800 467.467,321.067 467.200,321.600 467.200 C 322.248 467.200,322.400 466.933,322.400 465.800 C 322.400 464.822,322.581 464.400,323.000 464.400 C 323.333 464.400,323.600 464.044,323.600 463.600 C 323.600 463.067,323.867 462.800,324.400 462.800 C 325.048 462.800,325.200 462.533,325.200 461.400 C 325.200 460.267,325.352 460.000,326.000 460.000 C 326.667 460.000,326.800 459.733,326.800 458.400 C 326.800 457.244,326.967 456.800,327.400 456.800 C 327.819 456.800,328.000 456.378,328.000 455.400 C 328.000 454.267,328.152 454.000,328.800 454.000 C 329.448 454.000,329.600 453.733,329.600 452.600 C 329.600 451.467,329.752 451.200,330.400 451.200 C 331.067 451.200,331.200 450.933,331.200 449.600 C 331.200 448.444,331.367 448.000,331.800 448.000 C 332.261 448.000,332.400 447.489,332.400 445.800 C 332.400 443.867,332.497 443.600,333.200 443.600 C 333.848 443.600,334.000 443.333,334.000 442.200 C 334.000 441.067,334.152 440.800,334.800 440.800 C 335.501 440.800,335.600 440.533,335.600 438.647 C 335.600 436.830,335.725 436.461,336.400 436.284 C 337.105 436.100,337.200 435.738,337.200 433.237 C 337.200 430.982,337.323 430.400,337.800 430.400 C 338.233 430.400,338.400 429.956,338.400 428.800 C 338.400 427.467,338.533 427.200,339.200 427.200 C 339.923 427.200,340.000 426.933,340.000 424.447 C 340.000 422.030,340.098 421.668,340.800 421.484 C 341.480 421.306,341.600 420.938,341.600 419.037 C 341.600 417.315,341.738 416.800,342.200 416.800 C 342.689 416.800,342.800 416.133,342.800 413.200 C 342.800 409.867,342.859 409.600,343.600 409.600 C 344.359 409.600,344.400 409.333,344.400 404.400 C 344.400 399.467,344.441 399.200,345.200 399.200 C 345.991 399.200,346.000 398.933,346.000 374.800 C 346.000 350.667,345.991 350.400,345.200 350.400 C 344.448 350.400,344.400 350.133,344.400 346.000 C 344.400 341.867,344.352 341.600,343.600 341.600 C 342.856 341.600,342.800 341.333,342.800 337.800 C 342.800 334.689,342.691 334.000,342.200 334.000 C 341.720 334.000,341.600 333.400,341.600 331.000 C 341.600 328.267,341.529 328.000,340.800 328.000 C 340.097 328.000,340.000 327.733,340.000 325.800 C 340.000 323.867,339.903 323.600,339.200 323.600 C 338.497 323.600,338.400 323.333,338.400 321.400 C 338.400 319.711,338.261 319.200,337.800 319.200 C 337.339 319.200,337.200 318.689,337.200 317.000 C 337.200 315.067,337.103 314.800,336.400 314.800 C 335.697 314.800,335.600 314.533,335.600 312.600 C 335.600 310.667,335.503 310.400,334.800 310.400 C 334.133 310.400,334.000 310.133,334.000 308.800 C 334.000 307.467,333.867 307.200,333.200 307.200 C 332.497 307.200,332.400 306.933,332.400 305.000 C 332.400 303.311,332.261 302.800,331.800 302.800 C 331.381 302.800,331.200 302.378,331.200 301.400 C 331.200 300.267,331.048 300.000,330.400 300.000 C 329.755 300.000,329.600 299.733,329.600 298.627 C 329.600 297.605,329.395 297.189,328.800 297.000 C 328.205 296.811,328.000 296.395,328.000 295.373 C 328.000 294.419,327.817 294.000,327.400 294.000 C 326.981 294.000,326.800 293.578,326.800 292.600 C 326.800 291.467,326.648 291.200,326.000 291.200 C 325.333 291.200,325.200 290.933,325.200 289.600 C 325.200 288.267,325.067 288.000,324.400 288.000 C 323.956 288.000,323.600 287.733,323.600 287.400 C 323.600 287.070,323.330 286.800,323.000 286.800 C 322.578 286.800,322.400 286.374,322.400 285.363 C 322.400 284.262,322.213 283.876,321.600 283.716 C 320.999 283.559,320.800 283.170,320.800 282.153 C 320.800 281.067,320.642 280.800,320.000 280.800 C 319.467 280.800,319.200 280.533,319.200 280.000 C 319.200 279.467,318.933 279.200,318.400 279.200 C 317.752 279.200,317.600 278.933,317.600 277.800 C 317.600 276.822,317.419 276.400,317.000 276.400 C 316.667 276.400,316.400 276.044,316.400 275.600 C 316.400 275.067,316.133 274.800,315.600 274.800 C 315.067 274.800,314.800 274.533,314.800 274.000 C 314.800 273.467,314.533 273.200,314.000 273.200 C 313.352 273.200,313.200 272.933,313.200 271.800 C 313.200 270.822,313.019 270.400,312.600 270.400 C 312.267 270.400,312.000 270.044,312.000 269.600 C 312.000 269.067,311.733 268.800,311.200 268.800 C 310.552 268.800,310.400 268.533,310.400 267.400 C 310.400 266.267,310.248 266.000,309.600 266.000 C 309.083 266.000,308.800 265.733,308.800 265.247 C 308.800 264.830,308.443 264.400,308.000 264.284 C 307.560 264.169,307.200 263.788,307.200 263.437 C 307.200 263.087,306.930 262.800,306.600 262.800 C 306.270 262.800,306.000 262.530,306.000 262.200 C 306.000 261.867,305.644 261.600,305.200 261.600 C 304.667 261.600,304.400 261.333,304.400 260.800 C 304.400 260.267,304.133 260.000,303.600 260.000 C 303.067 260.000,302.800 259.733,302.800 259.200 C 302.800 258.756,302.533 258.400,302.200 258.400 C 301.781 258.400,301.600 257.978,301.600 257.000 C 301.600 255.867,301.448 255.600,300.800 255.600 C 300.267 255.600,300.000 255.333,300.000 254.800 C 300.000 254.267,299.733 254.000,299.200 254.000 C 298.667 254.000,298.400 253.733,298.400 253.200 C 298.400 252.756,298.133 252.400,297.800 252.400 C 297.470 252.400,297.200 252.130,297.200 251.800 C 297.200 251.467,296.844 251.200,296.400 251.200 C 295.867 251.200,295.600 250.933,295.600 250.400 C 295.600 249.867,295.333 249.600,294.800 249.600 C 294.267 249.600,294.000 249.333,294.000 248.800 C 294.000 248.267,293.733 248.000,293.200 248.000 C 292.756 248.000,292.400 247.733,292.400 247.400 C 292.400 246.981,291.978 246.800,291.000 246.800 C 289.867 246.800,289.600 246.648,289.600 246.000 C 289.600 245.467,289.333 245.200,288.800 245.200 C 288.267 245.200,288.000 244.933,288.000 244.400 C 288.000 243.853,287.733 243.600,287.157 243.600 C 286.572 243.600,286.385 243.416,286.545 243.000 C 286.751 242.463,286.355 242.218,285.500 242.353 C 285.335 242.379,285.200 242.040,285.200 241.600 C 285.200 241.067,284.933 240.800,284.400 240.800 C 283.867 240.800,283.600 240.533,283.600 240.000 C 283.600 239.560,283.351 239.200,283.047 239.200 C 282.742 239.200,282.399 238.840,282.284 238.400 C 282.124 237.787,281.738 237.600,280.637 237.600 C 279.626 237.600,279.200 237.422,279.200 237.000 C 279.200 236.667,278.844 236.400,278.400 236.400 C 277.867 236.400,277.600 236.133,277.600 235.600 C 277.600 235.156,277.333 234.800,277.000 234.800 C 276.667 234.800,276.400 234.444,276.400 234.000 C 276.400 233.333,276.133 233.200,274.800 233.200 C 273.644 233.200,273.200 233.033,273.200 232.600 C 273.200 232.270,272.951 232.000,272.647 232.000 C 272.342 232.000,271.999 231.640,271.884 231.200 C 271.724 230.587,271.338 230.400,270.237 230.400 C 269.067 230.400,268.800 230.252,268.800 229.600 C 268.800 229.160,268.542 228.800,268.227 228.800 C 267.912 228.800,267.540 228.440,267.400 228.000 C 267.211 227.405,266.795 227.200,265.773 227.200 C 264.819 227.200,264.400 227.017,264.400 226.600 C 264.400 226.267,264.044 226.000,263.600 226.000 C 263.067 226.000,262.800 225.733,262.800 225.200 C 262.800 224.558,262.533 224.400,261.447 224.400 C 260.430 224.400,260.041 224.201,259.884 223.600 C 259.732 223.017,259.338 222.800,258.437 222.800 C 257.604 222.800,257.200 222.604,257.200 222.200 C 257.200 221.767,256.756 221.600,255.600 221.600 C 254.267 221.600,254.000 221.467,254.000 220.800 C 254.000 220.152,253.733 220.000,252.600 220.000 C 251.467 220.000,251.200 219.848,251.200 219.200 C 251.200 218.533,250.933 218.400,249.600 218.400 C 248.444 218.400,248.000 218.233,248.000 217.800 C 248.000 217.381,247.578 217.200,246.600 217.200 C 245.467 217.200,245.200 217.048,245.200 216.400 C 245.200 215.758,244.933 215.600,243.847 215.600 C 242.830 215.600,242.441 215.401,242.284 214.800 C 242.124 214.187,241.738 214.000,240.637 214.000 C 239.467 214.000,239.200 213.852,239.200 213.200 C 239.200 212.497,238.933 212.400,237.000 212.400 C 235.311 212.400,234.800 212.261,234.800 211.800 C 234.800 211.381,234.378 211.200,233.400 211.200 C 232.267 211.200,232.000 211.048,232.000 210.400 C 232.000 209.671,231.733 209.600,229.000 209.600 C 226.267 209.600,226.000 209.529,226.000 208.800 C 226.000 208.133,225.733 208.000,224.400 208.000 C 223.244 208.000,222.800 207.833,222.800 207.400 C 222.800 206.924,222.222 206.800,220.000 206.800 C 217.467 206.800,217.200 206.724,217.200 206.000 C 217.200 205.289,216.933 205.200,214.800 205.200 C 212.667 205.200,212.400 205.111,212.400 204.400 C 212.400 203.659,212.133 203.600,208.800 203.600 C 205.990 203.600,205.200 203.478,205.200 203.043 C 205.200 202.193,204.270 202.000,200.167 202.000 C 197.085 202.000,196.400 201.891,196.400 201.400 C 196.400 200.879,194.644 200.800,183.000 200.800 C 169.867 200.800,169.600 200.784,169.600 200.000 C 169.600 199.352,169.333 199.200,168.200 199.200 C 167.067 199.200,166.800 199.352,166.800 200.000 M116.400 242.800 C 116.400 243.448,116.667 243.600,117.800 243.600 C 118.933 243.600,119.200 243.752,119.200 244.400 C 119.200 245.067,119.467 245.200,120.800 245.200 C 122.133 245.200,122.400 245.333,122.400 246.000 C 122.400 246.444,122.667 246.800,123.000 246.800 C 123.419 246.800,123.600 247.222,123.600 248.200 C 123.600 249.333,123.752 249.600,124.400 249.600 C 124.933 249.600,125.200 249.867,125.200 250.400 C 125.200 250.933,125.467 251.200,126.000 251.200 C 126.703 251.200,126.800 251.467,126.800 253.400 C 126.800 255.089,126.939 255.600,127.400 255.600 C 127.861 255.600,128.000 256.111,128.000 257.800 C 128.000 259.489,127.861 260.000,127.400 260.000 C 126.939 260.000,126.800 260.511,126.800 262.200 C 126.800 264.133,126.703 264.400,126.000 264.400 C 125.352 264.400,125.200 264.667,125.200 265.800 C 125.200 266.814,125.024 267.200,124.563 267.200 C 124.212 267.200,123.831 267.560,123.716 268.000 C 123.601 268.440,123.258 268.800,122.953 268.800 C 122.649 268.800,122.400 269.160,122.400 269.600 C 122.400 270.133,122.133 270.400,121.600 270.400 C 121.067 270.400,120.800 270.667,120.800 271.200 C 120.800 271.903,120.533 272.000,118.600 272.000 C 116.911 272.000,116.400 272.139,116.400 272.600 C 116.400 273.097,115.643 273.200,111.987 273.200 C 108.434 273.200,107.530 273.083,107.345 272.600 C 107.203 272.230,106.595 272.000,105.757 272.000 C 104.667 272.000,104.400 271.843,104.400 271.200 C 104.400 270.552,104.133 270.400,103.000 270.400 C 101.867 270.400,101.600 270.248,101.600 269.600 C 101.600 269.067,101.333 268.800,100.800 268.800 C 100.267 268.800,100.000 268.533,100.000 268.000 C 100.000 267.467,99.733 267.200,99.200 267.200 C 98.552 267.200,98.400 266.933,98.400 265.800 C 98.400 264.822,98.219 264.400,97.800 264.400 C 97.339 264.400,97.200 263.889,97.200 262.200 C 97.200 260.267,97.103 260.000,96.400 260.000 C 95.656 260.000,95.600 259.733,95.600 256.200 C 95.600 252.667,95.656 252.400,96.400 252.400 C 97.048 252.400,97.200 252.133,97.200 251.000 C 97.200 250.022,97.381 249.600,97.800 249.600 C 98.133 249.600,98.400 249.244,98.400 248.800 C 98.400 248.267,98.667 248.000,99.200 248.000 C 99.640 248.000,100.000 247.742,100.000 247.427 C 100.000 247.112,100.360 246.740,100.800 246.600 C 101.240 246.460,101.600 246.088,101.600 245.773 C 101.600 245.385,102.051 245.200,103.000 245.200 C 104.133 245.200,104.400 245.048,104.400 244.400 C 104.400 243.755,104.667 243.600,105.773 243.600 C 106.795 243.600,107.211 243.395,107.400 242.800 C 107.634 242.064,108.005 242.000,112.027 242.000 C 116.133 242.000,116.400 242.049,116.400 242.800 M279.200 613.200 C 279.200 613.941,278.933 614.000,275.600 614.000 C 272.267 614.000,272.000 614.059,272.000 614.800 C 272.000 615.503,271.733 615.600,269.800 615.600 C 268.111 615.600,267.600 615.739,267.600 616.200 C 267.600 616.633,267.156 616.800,266.000 616.800 C 264.667 616.800,264.400 616.933,264.400 617.600 C 264.400 618.248,264.133 618.400,263.000 618.400 C 261.867 618.400,261.600 618.552,261.600 619.200 C 261.600 619.867,261.333 620.000,260.000 620.000 C 258.651 620.000,258.400 620.129,258.400 620.824 C 258.400 621.305,258.223 621.538,257.973 621.383 C 257.738 621.238,257.447 621.497,257.326 621.960 C 257.201 622.438,256.782 622.800,256.353 622.800 C 255.867 622.800,255.600 623.083,255.600 623.600 C 255.600 624.133,255.333 624.400,254.800 624.400 C 254.267 624.400,254.000 624.667,254.000 625.200 C 254.000 625.640,253.749 626.000,253.443 626.000 C 253.136 626.000,252.782 626.270,252.655 626.600 C 252.529 626.930,252.149 627.200,251.813 627.200 C 251.467 627.200,251.200 627.548,251.200 628.000 C 251.200 628.533,250.933 628.800,250.400 628.800 C 249.867 628.800,249.600 629.067,249.600 629.600 C 249.600 630.133,249.333 630.400,248.800 630.400 C 248.356 630.400,248.000 630.667,248.000 631.000 C 248.000 631.330,247.730 631.600,247.400 631.600 C 246.967 631.600,246.800 632.044,246.800 633.200 C 246.800 634.533,246.667 634.800,246.000 634.800 C 245.352 634.800,245.200 635.067,245.200 636.200 C 245.200 637.333,245.048 637.600,244.400 637.600 C 243.733 637.600,243.600 637.867,243.600 639.200 C 243.600 640.356,243.433 640.800,243.000 640.800 C 242.581 640.800,242.400 641.222,242.400 642.200 C 242.400 643.333,242.248 643.600,241.600 643.600 C 240.897 643.600,240.800 643.867,240.800 645.800 C 240.800 647.733,240.703 648.000,240.000 648.000 C 239.221 648.000,239.200 648.267,239.200 658.400 C 239.200 668.533,239.221 668.800,240.000 668.800 C 240.703 668.800,240.800 669.067,240.800 671.000 C 240.800 672.933,240.897 673.200,241.600 673.200 C 242.303 673.200,242.400 673.467,242.400 675.400 C 242.400 677.089,242.539 677.600,243.000 677.600 C 243.422 677.600,243.600 678.026,243.600 679.037 C 243.600 680.138,243.787 680.524,244.400 680.684 C 244.840 680.799,245.200 681.142,245.200 681.447 C 245.200 681.751,245.560 682.000,246.000 682.000 C 246.667 682.000,246.800 682.267,246.800 683.600 C 246.800 684.756,246.967 685.200,247.400 685.200 C 247.730 685.200,248.000 685.470,248.000 685.800 C 248.000 686.133,248.356 686.400,248.800 686.400 C 249.467 686.400,249.600 686.667,249.600 688.000 C 249.600 689.300,249.741 689.600,250.353 689.600 C 250.770 689.600,251.200 689.957,251.316 690.400 C 251.468 690.983,251.862 691.200,252.763 691.200 C 253.596 691.200,254.000 691.396,254.000 691.800 C 254.000 692.133,254.356 692.400,254.800 692.400 C 255.333 692.400,255.600 692.667,255.600 693.200 C 255.600 693.733,255.867 694.000,256.400 694.000 C 256.933 694.000,257.200 694.267,257.200 694.800 C 257.200 695.244,257.467 695.600,257.800 695.600 C 258.130 695.600,258.400 695.870,258.400 696.200 C 258.400 696.633,258.844 696.800,260.000 696.800 C 261.333 696.800,261.600 696.933,261.600 697.600 C 261.600 698.040,261.849 698.400,262.153 698.400 C 262.458 698.400,262.801 698.760,262.916 699.200 C 263.094 699.880,263.462 700.000,265.363 700.000 C 267.085 700.000,267.600 700.138,267.600 700.600 C 267.600 701.061,268.111 701.200,269.800 701.200 C 271.733 701.200,272.000 701.297,272.000 702.000 C 272.000 702.752,272.267 702.800,276.400 702.800 C 279.067 702.800,280.800 702.958,280.800 703.200 C 280.800 703.446,282.800 703.600,286.000 703.600 C 289.200 703.600,291.200 703.446,291.200 703.200 C 291.200 702.963,292.667 702.800,294.800 702.800 C 298.133 702.800,298.400 702.741,298.400 702.000 C 298.400 701.297,298.667 701.200,300.600 701.200 C 302.289 701.200,302.800 701.061,302.800 700.600 C 302.800 700.167,303.244 700.000,304.400 700.000 C 305.733 700.000,306.000 699.867,306.000 699.200 C 306.000 698.552,306.267 698.400,307.400 698.400 C 308.533 698.400,308.800 698.248,308.800 697.600 C 308.800 696.933,309.067 696.800,310.400 696.800 C 311.556 696.800,312.000 696.633,312.000 696.200 C 312.000 695.870,312.270 695.600,312.600 695.600 C 312.933 695.600,313.200 695.244,313.200 694.800 C 313.200 694.267,313.467 694.000,314.000 694.000 C 314.533 694.000,314.800 693.733,314.800 693.200 C 314.800 692.667,315.067 692.400,315.600 692.400 C 316.141 692.400,316.400 692.133,316.400 691.576 C 316.400 691.095,316.577 690.862,316.827 691.017 C 317.062 691.162,317.353 690.903,317.474 690.440 C 317.599 689.962,318.018 689.600,318.447 689.600 C 318.933 689.600,319.200 689.317,319.200 688.800 C 319.200 688.267,319.467 688.000,320.000 688.000 C 320.533 688.000,320.800 687.733,320.800 687.200 C 320.800 686.667,321.067 686.400,321.600 686.400 C 322.044 686.400,322.400 686.133,322.400 685.800 C 322.400 685.470,322.670 685.200,323.000 685.200 C 323.433 685.200,323.600 684.756,323.600 683.600 C 323.600 682.267,323.733 682.000,324.400 682.000 C 325.048 682.000,325.200 681.733,325.200 680.600 C 325.200 679.467,325.352 679.200,326.000 679.200 C 326.667 679.200,326.800 678.933,326.800 677.600 C 326.800 676.444,326.967 676.000,327.400 676.000 C 327.861 676.000,328.000 675.489,328.000 673.800 C 328.000 671.867,328.097 671.600,328.800 671.600 C 329.503 671.600,329.600 671.333,329.600 669.400 C 329.600 667.467,329.697 667.200,330.400 667.200 C 331.176 667.200,331.200 666.933,331.200 658.400 C 331.200 649.867,331.176 649.600,330.400 649.600 C 329.671 649.600,329.600 649.333,329.600 646.600 C 329.600 643.867,329.529 643.600,328.800 643.600 C 328.097 643.600,328.000 643.333,328.000 641.400 C 328.000 639.711,327.861 639.200,327.400 639.200 C 327.067 639.200,326.800 638.844,326.800 638.400 C 326.800 637.867,326.533 637.600,326.000 637.600 C 325.352 637.600,325.200 637.333,325.200 636.200 C 325.200 635.067,325.048 634.800,324.400 634.800 C 323.733 634.800,323.600 634.533,323.600 633.200 C 323.600 632.044,323.433 631.600,323.000 631.600 C 322.670 631.600,322.400 631.330,322.400 631.000 C 322.400 630.667,322.044 630.400,321.600 630.400 C 321.067 630.400,320.800 630.133,320.800 629.600 C 320.800 629.067,320.533 628.800,320.000 628.800 C 319.467 628.800,319.200 628.533,319.200 628.000 C 319.200 627.467,318.933 627.200,318.400 627.200 C 317.956 627.200,317.600 626.933,317.600 626.600 C 317.600 626.270,317.330 626.000,317.000 626.000 C 316.667 626.000,316.400 625.644,316.400 625.200 C 316.400 624.667,316.133 624.400,315.600 624.400 C 315.067 624.400,314.800 624.133,314.800 623.600 C 314.800 623.083,314.533 622.800,314.047 622.800 C 313.618 622.800,313.199 622.438,313.074 621.960 C 312.953 621.497,312.662 621.238,312.427 621.383 C 312.177 621.538,312.000 621.305,312.000 620.824 C 312.000 620.267,311.741 620.000,311.200 620.000 C 310.667 620.000,310.400 619.733,310.400 619.200 C 310.400 618.497,310.133 618.400,308.200 618.400 C 306.267 618.400,306.000 618.303,306.000 617.600 C 306.000 616.933,305.733 616.800,304.400 616.800 C 303.244 616.800,302.800 616.633,302.800 616.200 C 302.800 615.739,302.289 615.600,300.600 615.600 C 298.667 615.600,298.400 615.503,298.400 614.800 C 298.400 614.059,298.133 614.000,294.800 614.000 C 291.467 614.000,291.200 613.941,291.200 613.200 C 291.200 612.436,290.933 612.400,285.200 612.400 C 279.467 612.400,279.200 612.436,279.200 613.200 " stroke="none" fill="#05a2fb" fill-rule="evenodd"></path></g></svg>