<svg id="svg" version="1.1" xmlns="http://www.w3.org/2000/svg" xmlns:xlink="http://www.w3.org/1999/xlink" width="400" height="724.3243243243243" viewBox="0, 0, 400,724.3243243243243"><g id="svgg"><path id="path0" d="M123.200 562.000 C 123.200 562.756,122.933 562.800,118.400 562.800 C 113.867 562.800,113.600 562.844,113.600 563.600 C 113.600 564.248,113.333 564.400,112.200 564.400 C 111.039 564.400,110.800 564.545,110.800 565.251 C 110.800 566.020,110.646 566.078,109.200 565.846 C 107.690 565.605,107.600 565.647,107.600 566.595 C 107.600 567.789,106.022 568.084,105.968 566.900 C 105.950 566.482,105.856 566.401,105.735 566.700 C 105.624 566.975,105.278 567.200,104.967 567.200 C 104.655 567.200,104.400 567.560,104.400 568.000 C 104.400 568.533,104.133 568.800,103.600 568.800 C 103.067 568.800,102.800 569.067,102.800 569.600 C 102.800 570.133,102.533 570.400,102.000 570.400 C 101.467 570.400,101.200 570.667,101.200 571.200 C 101.200 571.867,100.933 572.000,99.600 572.000 C 98.300 572.000,98.000 572.141,98.000 572.753 C 98.000 573.170,97.643 573.600,97.200 573.716 C 96.760 573.831,96.400 574.212,96.400 574.563 C 96.400 574.944,96.062 575.200,95.557 575.200 C 94.972 575.200,94.785 575.384,94.945 575.800 C 95.151 576.337,94.755 576.582,93.900 576.447 C 93.735 576.421,93.600 576.760,93.600 577.200 C 93.600 577.733,93.333 578.000,92.800 578.000 C 92.267 578.000,92.000 578.267,92.000 578.800 C 92.000 579.333,91.733 579.600,91.200 579.600 C 90.667 579.600,90.400 579.867,90.400 580.400 C 90.400 580.933,90.133 581.200,89.600 581.200 C 89.067 581.200,88.800 581.467,88.800 582.000 C 88.800 582.533,88.533 582.800,88.000 582.800 C 87.467 582.800,87.200 583.067,87.200 583.600 C 87.200 584.133,86.933 584.400,86.400 584.400 C 85.867 584.400,85.600 584.667,85.600 585.200 C 85.600 585.733,85.333 586.000,84.800 586.000 C 84.356 586.000,84.000 586.267,84.000 586.600 C 84.000 586.930,83.730 587.200,83.400 587.200 C 83.067 587.200,82.800 587.556,82.800 588.000 C 82.800 588.465,82.533 588.800,82.163 588.800 C 81.812 588.800,81.431 589.160,81.316 589.600 C 81.200 590.043,80.770 590.400,80.353 590.400 C 79.867 590.400,79.600 590.683,79.600 591.200 C 79.600 591.733,79.333 592.000,78.800 592.000 C 78.267 592.000,78.000 592.267,78.000 592.800 C 78.000 593.333,77.733 593.600,77.200 593.600 C 76.667 593.600,76.400 593.867,76.400 594.400 C 76.400 594.933,76.133 595.200,75.600 595.200 C 75.067 595.200,74.800 595.467,74.800 596.000 C 74.800 596.533,74.533 596.800,74.000 596.800 C 73.560 596.800,73.200 597.051,73.200 597.357 C 73.200 597.664,72.930 598.018,72.600 598.145 C 72.270 598.271,72.000 598.630,72.000 598.941 C 72.000 599.252,71.640 599.601,71.200 599.716 C 70.760 599.831,70.400 600.212,70.400 600.563 C 70.400 600.933,70.065 601.200,69.600 601.200 C 69.083 601.200,68.800 601.467,68.800 601.953 C 68.800 602.370,68.443 602.800,68.000 602.916 C 67.560 603.031,67.200 603.391,67.200 603.716 C 67.200 604.041,66.840 604.401,66.400 604.516 C 65.787 604.676,65.600 605.062,65.600 606.163 C 65.600 607.487,65.508 607.600,64.421 607.600 C 63.723 607.600,62.809 608.001,62.184 608.580 C 60.602 610.046,59.602 609.283,59.595 606.604 C 59.587 603.937,59.232 602.702,58.547 602.965 C 58.135 603.123,58.000 602.736,58.000 601.387 C 58.000 599.867,57.881 599.600,57.200 599.600 C 56.572 599.600,56.400 599.333,56.400 598.363 C 56.400 597.462,56.183 597.068,55.600 596.916 C 55.157 596.800,54.800 596.370,54.800 595.953 C 54.800 595.467,54.517 595.200,54.000 595.200 C 53.467 595.200,53.200 594.933,53.200 594.400 C 53.200 593.867,52.933 593.600,52.400 593.600 C 51.733 593.600,51.600 593.333,51.600 592.000 C 51.600 590.667,51.467 590.400,50.800 590.400 C 50.267 590.400,50.000 590.133,50.000 589.600 C 50.000 589.067,49.733 588.800,49.200 588.800 C 48.671 588.800,48.400 588.533,48.400 588.013 C 48.400 587.499,48.204 587.300,47.836 587.441 C 47.497 587.572,47.167 587.327,47.009 586.829 C 46.810 586.202,46.411 586.000,45.373 586.000 C 44.267 586.000,44.000 585.845,44.000 585.200 C 44.000 584.667,43.733 584.400,43.200 584.400 C 42.667 584.400,42.400 584.133,42.400 583.600 C 42.400 582.937,42.133 582.800,40.847 582.800 C 39.630 582.800,39.248 582.627,39.084 582.000 C 38.900 581.295,38.538 581.200,36.037 581.200 C 33.467 581.200,33.200 581.125,33.200 580.400 C 33.200 579.637,32.933 579.600,27.400 579.600 C 21.867 579.600,21.600 579.637,21.600 580.400 C 21.600 581.137,21.333 581.200,18.200 581.200 C 15.067 581.200,14.800 581.263,14.800 582.000 C 14.800 582.667,14.533 582.800,13.200 582.800 C 11.867 582.800,11.600 582.933,11.600 583.600 C 11.600 584.245,11.333 584.400,10.227 584.400 C 9.231 584.400,8.788 584.608,8.614 585.157 C 8.482 585.573,8.019 586.006,7.587 586.119 C 7.154 586.233,6.800 586.631,6.800 587.005 C 6.800 587.446,6.588 587.604,6.200 587.455 C 5.722 587.272,5.600 587.588,5.600 589.013 C 5.600 590.533,5.481 590.800,4.800 590.800 C 4.356 590.800,4.000 591.067,4.000 591.400 C 4.000 591.733,3.644 592.000,3.200 592.000 C 2.533 592.000,2.400 592.267,2.400 593.600 C 2.400 594.947,2.270 595.200,1.579 595.200 C 0.805 595.200,0.764 595.405,0.853 598.875 C 0.919 601.425,0.802 602.599,0.474 602.709 C -0.147 602.916,-0.221 706.000,0.400 706.000 C 0.622 706.000,0.800 707.067,0.800 708.400 C 0.800 710.533,0.889 710.800,1.600 710.800 C 2.267 710.800,2.400 711.067,2.400 712.400 C 2.400 713.733,2.533 714.000,3.200 714.000 C 3.644 714.000,4.000 714.267,4.000 714.600 C 4.000 714.933,4.356 715.200,4.800 715.200 C 5.317 715.200,5.600 715.467,5.600 715.953 C 5.600 716.370,5.957 716.800,6.400 716.916 C 6.840 717.031,7.200 717.412,7.200 717.763 C 7.200 718.113,7.470 718.400,7.800 718.400 C 8.133 718.400,8.400 718.756,8.400 719.200 C 8.400 719.733,8.667 720.000,9.200 720.000 C 9.733 720.000,10.000 720.267,10.000 720.800 C 10.000 721.470,10.267 721.600,11.647 721.600 C 13.096 721.600,13.268 721.696,13.084 722.400 C 12.898 723.111,13.072 723.200,14.637 723.200 C 15.607 723.200,16.400 723.380,16.400 723.600 C 16.400 723.865,36.133 724.000,74.800 724.000 C 113.467 724.000,133.200 723.865,133.200 723.600 C 133.200 723.380,133.920 723.200,134.800 723.200 C 136.133 723.200,136.400 723.067,136.400 722.400 C 136.400 721.733,136.667 721.600,138.000 721.600 C 139.333 721.600,139.600 721.467,139.600 720.800 C 139.600 720.267,139.867 720.000,140.400 720.000 C 140.933 720.000,141.200 719.733,141.200 719.200 C 141.200 718.667,141.467 718.400,142.000 718.400 C 142.444 718.400,142.800 718.133,142.800 717.800 C 142.800 717.467,143.156 717.200,143.600 717.200 C 144.133 717.200,144.400 716.933,144.400 716.400 C 144.400 715.867,144.667 715.600,145.200 715.600 C 145.733 715.600,146.000 715.333,146.000 714.800 C 146.000 714.267,146.267 714.000,146.800 714.000 C 147.467 714.000,147.600 713.733,147.600 712.400 C 147.600 711.032,147.724 710.800,148.456 710.800 C 149.259 710.800,149.298 710.653,149.093 708.400 C 148.896 706.221,148.947 706.000,149.647 706.000 C 150.384 706.000,150.414 705.686,150.309 699.100 C 150.226 693.839,150.081 692.224,149.700 692.300 C 149.342 692.372,149.200 691.673,149.200 689.833 C 149.200 686.833,148.949 685.968,148.167 686.268 C 147.734 686.434,147.600 686.096,147.600 684.843 C 147.600 683.467,147.470 683.200,146.800 683.200 C 146.267 683.200,146.000 682.933,146.000 682.400 C 146.000 681.867,145.733 681.600,145.200 681.600 C 144.533 681.600,144.400 681.333,144.400 680.000 C 144.400 678.667,144.267 678.400,143.600 678.400 C 143.067 678.400,142.800 678.133,142.800 677.600 C 142.800 677.067,142.533 676.800,142.000 676.800 C 141.467 676.800,141.200 676.533,141.200 676.000 C 141.200 675.467,140.933 675.200,140.400 675.200 C 139.956 675.200,139.600 674.933,139.600 674.600 C 139.600 674.270,139.330 674.000,139.000 674.000 C 138.667 674.000,138.400 673.644,138.400 673.200 C 138.400 672.667,138.133 672.400,137.600 672.400 C 137.067 672.400,136.800 672.133,136.800 671.600 C 136.800 670.933,136.533 670.800,135.200 670.800 C 133.867 670.800,133.600 670.667,133.600 670.000 C 133.600 669.467,133.333 669.200,132.800 669.200 C 132.267 669.200,132.000 668.933,132.000 668.400 C 132.000 667.733,131.733 667.600,130.400 667.600 C 129.067 667.600,128.800 667.467,128.800 666.800 C 128.800 666.158,128.533 666.000,127.447 666.000 C 126.488 666.000,126.044 665.796,125.926 665.300 C 125.663 664.201,126.003 663.200,126.639 663.200 C 126.959 663.200,127.395 662.739,127.609 662.176 C 127.823 661.613,128.179 661.263,128.399 661.400 C 128.642 661.549,128.800 661.006,128.800 660.024 C 128.800 658.401,128.801 658.400,130.372 658.400 C 131.698 658.400,131.964 658.259,132.072 657.500 C 132.158 656.899,132.433 656.639,132.900 656.718 C 133.365 656.796,133.600 656.576,133.600 656.064 C 133.600 655.630,133.949 655.202,134.400 655.084 C 134.840 654.969,135.200 654.588,135.200 654.237 C 135.200 653.867,135.535 653.600,136.000 653.600 C 136.539 653.600,136.800 653.333,136.800 652.782 C 136.800 652.226,137.023 652.002,137.500 652.082 C 137.913 652.152,138.154 651.981,138.089 651.666 C 138.027 651.372,138.342 651.036,138.789 650.919 C 139.241 650.800,139.600 650.374,139.600 649.953 C 139.600 649.467,139.883 649.200,140.400 649.200 C 140.933 649.200,141.200 648.933,141.200 648.400 C 141.200 647.867,141.467 647.600,142.000 647.600 C 142.533 647.600,142.800 647.333,142.800 646.800 C 142.800 646.267,143.067 646.000,143.600 646.000 C 144.267 646.000,144.400 645.733,144.400 644.400 C 144.400 642.830,144.427 642.800,145.837 642.800 C 146.952 642.800,147.323 642.615,147.490 641.977 C 147.618 641.489,147.928 641.240,148.253 641.365 C 148.554 641.480,148.800 641.401,148.800 641.187 C 148.800 640.974,148.609 640.800,148.376 640.800 C 148.143 640.800,148.066 640.617,148.204 640.393 C 148.342 640.170,148.584 640.066,148.741 640.164 C 148.898 640.261,149.021 639.859,149.013 639.270 C 149.003 638.436,149.186 638.206,149.843 638.226 C 150.466 638.245,150.637 638.062,150.496 637.526 C 150.357 636.994,150.533 636.800,151.153 636.800 C 151.733 636.800,152.000 636.548,152.000 636.000 C 152.000 635.467,152.267 635.200,152.800 635.200 C 153.333 635.200,153.600 634.933,153.600 634.400 C 153.600 633.867,153.867 633.600,154.400 633.600 C 154.933 633.600,155.200 633.333,155.200 632.800 C 155.200 632.267,155.467 632.000,156.000 632.000 C 156.440 632.000,156.800 631.742,156.800 631.427 C 156.800 631.112,157.160 630.740,157.600 630.600 C 158.040 630.460,158.400 630.088,158.400 629.773 C 158.400 629.458,158.687 629.200,159.037 629.200 C 159.388 629.200,159.769 628.840,159.884 628.400 C 159.999 627.960,160.342 627.600,160.647 627.600 C 160.951 627.600,161.200 627.240,161.200 626.800 C 161.200 626.267,161.467 626.000,162.000 626.000 C 162.533 626.000,162.800 625.733,162.800 625.200 C 162.800 624.667,163.067 624.400,163.600 624.400 C 164.267 624.400,164.400 624.133,164.400 622.800 C 164.400 621.467,164.533 621.200,165.200 621.200 C 165.913 621.200,166.000 620.933,166.000 618.753 C 166.000 616.504,166.064 616.324,166.800 616.516 C 167.499 616.699,167.600 616.528,167.600 615.163 C 167.600 613.867,167.737 613.600,168.400 613.600 C 169.711 613.600,169.646 594.121,168.334 593.928 C 167.523 593.808,167.473 593.605,167.558 590.753 C 167.641 587.973,167.577 587.687,166.825 587.491 C 166.185 587.323,166.000 586.953,166.000 585.837 C 166.000 584.667,165.852 584.400,165.200 584.400 C 164.533 584.400,164.400 584.133,164.400 582.800 C 164.400 581.467,164.267 581.200,163.600 581.200 C 163.067 581.200,162.800 580.933,162.800 580.400 C 162.800 579.867,162.533 579.600,162.000 579.600 C 161.331 579.600,161.200 579.333,161.200 577.976 C 161.200 577.053,161.036 576.454,160.820 576.588 C 160.611 576.717,160.245 576.457,160.006 576.011 C 159.767 575.565,159.308 575.200,158.986 575.200 C 158.664 575.200,158.400 574.840,158.400 574.400 C 158.400 573.867,158.133 573.600,157.600 573.600 C 157.067 573.600,156.800 573.333,156.800 572.800 C 156.800 572.283,156.533 572.000,156.047 572.000 C 155.630 572.000,155.200 571.643,155.084 571.200 C 154.924 570.587,154.538 570.400,153.437 570.400 C 152.267 570.400,152.000 570.252,152.000 569.600 C 152.000 569.067,151.733 568.800,151.200 568.800 C 150.667 568.800,150.400 568.533,150.400 568.000 C 150.400 567.358,150.133 567.200,149.047 567.200 C 148.030 567.200,147.641 567.001,147.484 566.400 C 147.324 565.787,146.938 565.600,145.837 565.600 C 144.826 565.600,144.400 565.422,144.400 565.000 C 144.400 564.533,143.867 564.400,142.000 564.400 C 139.867 564.400,139.600 564.311,139.600 563.600 C 139.600 562.853,139.333 562.800,135.600 562.800 C 131.867 562.800,131.600 562.747,131.600 562.000 C 131.600 561.251,131.333 561.200,127.400 561.200 C 123.467 561.200,123.200 561.251,123.200 562.000 " stroke="none" fill="#052440" fill-rule="evenodd"></path><path id="path1" d="M116.800 0.400 C 116.800 0.640,115.200 0.800,112.800 0.800 C 109.067 0.800,108.800 0.853,108.800 1.600 C 108.800 2.303,108.533 2.400,106.600 2.400 C 104.667 2.400,104.400 2.497,104.400 3.200 C 104.400 3.867,104.133 4.000,102.800 4.000 C 101.467 4.000,101.200 4.133,101.200 4.800 C 101.200 5.467,100.933 5.600,99.600 5.600 C 98.444 5.600,98.000 5.767,98.000 6.200 C 98.000 6.622,97.574 6.800,96.563 6.800 C 95.462 6.800,95.076 6.987,94.916 7.600 C 94.801 8.040,94.458 8.400,94.153 8.400 C 93.849 8.400,93.600 8.760,93.600 9.200 C 93.600 9.733,93.333 10.000,92.800 10.000 C 92.267 10.000,92.000 10.267,92.000 10.800 C 92.000 11.333,91.733 11.600,91.200 11.600 C 90.667 11.600,90.400 11.867,90.400 12.400 C 90.400 12.933,90.133 13.200,89.600 13.200 C 89.067 13.200,88.800 13.467,88.800 14.000 C 88.800 14.533,88.533 14.800,88.000 14.800 C 87.467 14.800,87.200 15.067,87.200 15.600 C 87.200 16.133,86.933 16.400,86.400 16.400 C 85.960 16.400,85.600 16.649,85.600 16.953 C 85.600 17.258,85.240 17.601,84.800 17.716 C 84.187 17.876,84.000 18.262,84.000 19.363 C 84.000 20.374,83.822 20.800,83.400 20.800 C 83.067 20.800,82.800 21.156,82.800 21.600 C 82.800 22.133,82.533 22.400,82.000 22.400 C 81.333 22.400,81.200 22.667,81.200 24.000 C 81.200 25.333,81.067 25.600,80.400 25.600 C 79.752 25.600,79.600 25.867,79.600 27.000 C 79.600 28.133,79.448 28.400,78.800 28.400 C 78.089 28.400,78.000 28.667,78.000 30.800 C 78.000 32.933,77.911 33.200,77.200 33.200 C 76.456 33.200,76.400 33.467,76.400 37.000 C 76.400 40.533,76.344 40.800,75.600 40.800 C 74.834 40.800,74.800 41.067,74.800 47.000 C 74.800 52.933,74.834 53.200,75.600 53.200 C 76.344 53.200,76.400 53.467,76.400 57.000 C 76.400 60.533,76.456 60.800,77.200 60.800 C 77.911 60.800,78.000 61.067,78.000 63.200 C 78.000 65.333,78.089 65.600,78.800 65.600 C 79.467 65.600,79.600 65.867,79.600 67.200 C 79.600 68.533,79.733 68.800,80.400 68.800 C 81.048 68.800,81.200 69.067,81.200 70.200 C 81.200 71.333,81.352 71.600,82.000 71.600 C 82.667 71.600,82.800 71.867,82.800 73.200 C 82.800 74.356,82.967 74.800,83.400 74.800 C 83.733 74.800,84.000 75.156,84.000 75.600 C 84.000 76.133,84.267 76.400,84.800 76.400 C 85.333 76.400,85.600 76.667,85.600 77.200 C 85.600 77.733,85.867 78.000,86.400 78.000 C 87.067 78.000,87.200 78.267,87.200 79.600 C 87.200 80.933,87.333 81.200,88.000 81.200 C 88.444 81.200,88.800 81.467,88.800 81.800 C 88.800 82.133,89.156 82.400,89.600 82.400 C 90.133 82.400,90.400 82.667,90.400 83.200 C 90.400 83.867,90.667 84.000,92.000 84.000 C 93.333 84.000,93.600 84.133,93.600 84.800 C 93.600 85.244,93.867 85.600,94.200 85.600 C 94.530 85.600,94.800 85.887,94.800 86.237 C 94.800 86.588,95.160 86.969,95.600 87.084 C 96.043 87.200,96.400 87.630,96.400 88.047 C 96.400 88.659,96.700 88.800,98.000 88.800 C 99.333 88.800,99.600 88.933,99.600 89.600 C 99.600 90.133,99.867 90.400,100.400 90.400 C 100.933 90.400,101.200 90.667,101.200 91.200 C 101.200 91.867,101.467 92.000,102.800 92.000 C 103.956 92.000,104.400 92.167,104.400 92.600 C 104.400 93.061,104.911 93.200,106.600 93.200 C 108.533 93.200,108.800 93.297,108.800 94.000 C 108.800 94.754,109.067 94.800,113.400 94.800 C 117.733 94.800,118.000 94.846,118.000 95.600 C 118.000 96.838,127.160 96.838,127.484 95.600 C 127.678 94.859,128.030 94.800,132.247 94.800 C 136.533 94.800,136.800 94.753,136.800 94.000 C 136.800 93.297,137.067 93.200,139.000 93.200 C 140.689 93.200,141.200 93.061,141.200 92.600 C 141.200 92.133,141.733 92.000,143.600 92.000 C 145.733 92.000,146.000 91.911,146.000 91.200 C 146.000 90.667,146.267 90.400,146.800 90.400 C 147.333 90.400,147.600 90.133,147.600 89.600 C 147.600 88.952,147.867 88.800,149.000 88.800 C 150.133 88.800,150.400 88.648,150.400 88.000 C 150.400 87.333,150.667 87.200,152.000 87.200 C 153.333 87.200,153.600 87.067,153.600 86.400 C 153.600 85.867,153.867 85.600,154.400 85.600 C 154.933 85.600,155.200 85.333,155.200 84.800 C 155.200 84.267,155.467 84.000,156.000 84.000 C 156.533 84.000,156.800 83.733,156.800 83.200 C 156.800 82.667,157.067 82.400,157.600 82.400 C 158.040 82.400,158.400 82.142,158.400 81.827 C 158.400 81.512,158.760 81.140,159.200 81.000 C 159.640 80.860,160.000 80.488,160.000 80.173 C 160.000 79.858,160.270 79.600,160.600 79.600 C 160.933 79.600,161.200 79.244,161.200 78.800 C 161.200 78.267,161.467 78.000,162.000 78.000 C 162.667 78.000,162.800 77.733,162.800 76.400 C 162.800 75.067,162.933 74.800,163.600 74.800 C 164.133 74.800,164.400 74.533,164.400 74.000 C 164.400 73.467,164.667 73.200,165.200 73.200 C 165.848 73.200,166.000 72.933,166.000 71.800 C 166.000 70.667,166.152 70.400,166.800 70.400 C 167.467 70.400,167.600 70.133,167.600 68.800 C 167.600 67.467,167.733 67.200,168.400 67.200 C 169.111 67.200,169.200 66.933,169.200 64.800 C 169.200 62.667,169.289 62.400,170.000 62.400 C 170.703 62.400,170.800 62.133,170.800 60.200 C 170.800 58.511,170.939 58.000,171.400 58.000 C 171.917 58.000,172.000 56.622,172.000 48.000 C 172.000 39.378,171.917 38.000,171.400 38.000 C 170.933 38.000,170.800 37.467,170.800 35.600 C 170.800 33.467,170.711 33.200,170.000 33.200 C 169.295 33.200,169.200 32.933,169.200 30.963 C 169.200 29.062,169.080 28.694,168.400 28.516 C 167.799 28.359,167.600 27.970,167.600 26.953 C 167.600 25.867,167.442 25.600,166.800 25.600 C 166.133 25.600,166.000 25.333,166.000 24.000 C 166.000 22.667,165.867 22.400,165.200 22.400 C 164.667 22.400,164.400 22.133,164.400 21.600 C 164.400 21.067,164.133 20.800,163.600 20.800 C 163.067 20.800,162.800 20.533,162.800 20.000 C 162.800 19.467,162.533 19.200,162.000 19.200 C 161.352 19.200,161.200 18.933,161.200 17.800 C 161.200 16.822,161.019 16.400,160.600 16.400 C 160.267 16.400,160.000 16.044,160.000 15.600 C 160.000 15.067,159.733 14.800,159.200 14.800 C 158.667 14.800,158.400 14.533,158.400 14.000 C 158.400 13.467,158.133 13.200,157.600 13.200 C 157.067 13.200,156.800 12.933,156.800 12.400 C 156.800 11.867,156.533 11.600,156.000 11.600 C 155.467 11.600,155.200 11.333,155.200 10.800 C 155.200 10.267,154.933 10.000,154.400 10.000 C 153.867 10.000,153.600 9.733,153.600 9.200 C 153.600 8.533,153.333 8.400,152.000 8.400 C 150.667 8.400,150.400 8.267,150.400 7.600 C 150.400 7.156,150.133 6.800,149.800 6.800 C 149.470 6.800,149.200 6.530,149.200 6.200 C 149.200 5.767,148.756 5.600,147.600 5.600 C 146.267 5.600,146.000 5.467,146.000 4.800 C 146.000 4.267,145.733 4.000,145.200 4.000 C 144.667 4.000,144.400 3.733,144.400 3.200 C 144.400 2.471,144.133 2.400,141.400 2.400 C 138.667 2.400,138.400 2.329,138.400 1.600 C 138.400 0.867,138.133 0.800,135.200 0.800 C 133.333 0.800,132.000 0.633,132.000 0.400 C 132.000 0.147,129.200 0.000,124.400 0.000 C 119.600 0.000,116.800 0.147,116.800 0.400 M235.600 154.400 C 235.600 155.177,235.333 155.200,226.363 155.200 C 217.462 155.200,217.117 155.229,216.916 156.000 C 216.725 156.728,216.370 156.800,212.953 156.800 C 209.467 156.800,209.200 156.857,209.200 157.600 C 209.200 158.344,208.933 158.400,205.400 158.400 C 202.289 158.400,201.600 158.509,201.600 159.000 C 201.600 159.481,200.996 159.600,198.563 159.600 C 195.862 159.600,195.502 159.689,195.316 160.400 C 195.139 161.075,194.770 161.200,192.953 161.200 C 191.067 161.200,190.800 161.299,190.800 162.000 C 190.800 162.711,190.533 162.800,188.400 162.800 C 186.267 162.800,186.000 162.889,186.000 163.600 C 186.000 164.329,185.733 164.400,183.000 164.400 C 180.267 164.400,180.000 164.471,180.000 165.200 C 180.000 165.867,179.733 166.000,178.400 166.000 C 177.067 166.000,176.800 166.133,176.800 166.800 C 176.800 167.467,176.533 167.600,175.200 167.600 C 173.867 167.600,173.600 167.733,173.600 168.400 C 173.600 169.103,173.333 169.200,171.400 169.200 C 169.711 169.200,169.200 169.339,169.200 169.800 C 169.200 170.222,168.774 170.400,167.763 170.400 C 166.662 170.400,166.276 170.587,166.116 171.200 C 165.952 171.827,165.570 172.000,164.353 172.000 C 163.067 172.000,162.800 172.137,162.800 172.800 C 162.800 173.448,162.533 173.600,161.400 173.600 C 160.267 173.600,160.000 173.752,160.000 174.400 C 160.000 175.067,159.733 175.200,158.400 175.200 C 157.067 175.200,156.800 175.333,156.800 176.000 C 156.800 176.667,156.533 176.800,155.200 176.800 C 153.867 176.800,153.600 176.933,153.600 177.600 C 153.600 178.267,153.333 178.400,152.000 178.400 C 150.667 178.400,150.400 178.533,150.400 179.200 C 150.400 179.644,150.133 180.000,149.800 180.000 C 149.470 180.000,149.200 180.270,149.200 180.600 C 149.200 181.022,148.774 181.200,147.763 181.200 C 146.662 181.200,146.276 181.387,146.116 182.000 C 145.952 182.627,145.570 182.800,144.353 182.800 C 143.067 182.800,142.800 182.937,142.800 183.600 C 142.800 184.133,142.533 184.400,142.000 184.400 C 141.467 184.400,141.200 184.667,141.200 185.200 C 141.200 185.733,140.933 186.000,140.400 186.000 C 139.867 186.000,139.600 186.267,139.600 186.800 C 139.600 187.448,139.333 187.600,138.200 187.600 C 137.067 187.600,136.800 187.752,136.800 188.400 C 136.800 188.933,136.533 189.200,136.000 189.200 C 135.467 189.200,135.200 189.467,135.200 190.000 C 135.200 190.533,134.933 190.800,134.400 190.800 C 133.956 190.800,133.600 191.067,133.600 191.400 C 133.600 191.768,133.226 192.000,132.633 192.000 C 131.283 192.000,130.400 192.394,130.400 192.996 C 130.400 193.277,130.040 193.601,129.600 193.716 C 129.160 193.831,128.800 194.212,128.800 194.563 C 128.800 194.913,128.530 195.200,128.200 195.200 C 127.867 195.200,127.600 195.556,127.600 196.000 C 127.600 196.533,127.333 196.800,126.800 196.800 C 126.267 196.800,126.000 197.067,126.000 197.600 C 126.000 198.267,125.733 198.400,124.400 198.400 C 123.067 198.400,122.800 198.533,122.800 199.200 C 122.800 199.733,122.533 200.000,122.000 200.000 C 121.467 200.000,121.200 200.267,121.200 200.800 C 121.200 201.333,120.933 201.600,120.400 201.600 C 119.867 201.600,119.600 201.867,119.600 202.400 C 119.600 202.933,119.333 203.200,118.800 203.200 C 118.356 203.200,118.000 203.467,118.000 203.800 C 118.000 204.130,117.730 204.400,117.400 204.400 C 117.067 204.400,116.800 204.756,116.800 205.200 C 116.800 205.733,116.533 206.000,116.000 206.000 C 115.467 206.000,115.200 206.267,115.200 206.800 C 115.200 207.333,114.933 207.600,114.400 207.600 C 113.867 207.600,113.600 207.867,113.600 208.400 C 113.600 208.933,113.333 209.200,112.800 209.200 C 112.267 209.200,112.000 209.467,112.000 210.000 C 112.000 210.533,111.733 210.800,111.200 210.800 C 110.667 210.800,110.400 211.067,110.400 211.600 C 110.400 212.133,110.133 212.400,109.600 212.400 C 108.958 212.400,108.800 212.667,108.800 213.753 C 108.800 214.770,108.601 215.159,108.000 215.316 C 107.560 215.431,107.200 215.812,107.200 216.163 C 107.200 216.513,106.930 216.800,106.600 216.800 C 106.270 216.800,106.000 217.087,106.000 217.437 C 106.000 217.788,105.640 218.169,105.200 218.284 C 104.757 218.400,104.400 218.830,104.400 219.247 C 104.400 219.733,104.117 220.000,103.600 220.000 C 103.067 220.000,102.800 220.267,102.800 220.800 C 102.800 221.333,102.533 221.600,102.000 221.600 C 101.467 221.600,101.200 221.867,101.200 222.400 C 101.200 222.933,100.933 223.200,100.400 223.200 C 99.752 223.200,99.600 223.467,99.600 224.600 C 99.600 225.733,99.448 226.000,98.800 226.000 C 98.267 226.000,98.000 226.267,98.000 226.800 C 98.000 227.333,97.733 227.600,97.200 227.600 C 96.537 227.600,96.400 227.867,96.400 229.153 C 96.400 230.370,96.227 230.752,95.600 230.916 C 95.160 231.031,94.800 231.412,94.800 231.763 C 94.800 232.113,94.530 232.400,94.200 232.400 C 93.867 232.400,93.600 232.756,93.600 233.200 C 93.600 233.733,93.333 234.000,92.800 234.000 C 92.152 234.000,92.000 234.267,92.000 235.400 C 92.000 236.533,91.848 236.800,91.200 236.800 C 90.667 236.800,90.400 237.067,90.400 237.600 C 90.400 238.133,90.133 238.400,89.600 238.400 C 88.933 238.400,88.800 238.667,88.800 240.000 C 88.800 241.333,88.667 241.600,88.000 241.600 C 87.467 241.600,87.200 241.867,87.200 242.400 C 87.200 242.933,86.933 243.200,86.400 243.200 C 85.733 243.200,85.600 243.467,85.600 244.800 C 85.600 246.133,85.467 246.400,84.800 246.400 C 84.152 246.400,84.000 246.667,84.000 247.800 C 84.000 248.778,83.819 249.200,83.400 249.200 C 83.067 249.200,82.800 249.556,82.800 250.000 C 82.800 250.533,82.533 250.800,82.000 250.800 C 81.333 250.800,81.200 251.067,81.200 252.400 C 81.200 253.733,81.067 254.000,80.400 254.000 C 79.733 254.000,79.600 254.267,79.600 255.600 C 79.600 256.933,79.467 257.200,78.800 257.200 C 78.097 257.200,78.000 257.467,78.000 259.400 C 78.000 261.333,77.903 261.600,77.200 261.600 C 76.533 261.600,76.400 261.867,76.400 263.200 C 76.400 264.533,76.267 264.800,75.600 264.800 C 74.933 264.800,74.800 265.067,74.800 266.400 C 74.800 267.733,74.667 268.000,74.000 268.000 C 73.352 268.000,73.200 268.267,73.200 269.400 C 73.200 270.378,73.019 270.800,72.600 270.800 C 72.133 270.800,72.000 271.333,72.000 273.200 C 72.000 275.333,71.911 275.600,71.200 275.600 C 70.497 275.600,70.400 275.867,70.400 277.800 C 70.400 279.733,70.303 280.000,69.600 280.000 C 68.867 280.000,68.800 280.267,68.800 283.200 C 68.800 286.133,68.733 286.400,68.000 286.400 C 67.271 286.400,67.200 286.667,67.200 289.400 C 67.200 292.133,67.129 292.400,66.400 292.400 C 65.667 292.400,65.600 292.667,65.600 295.600 C 65.600 298.533,65.533 298.800,64.800 298.800 C 64.056 298.800,64.000 299.067,64.000 302.600 C 64.000 306.133,63.944 306.400,63.200 306.400 C 62.434 306.400,62.400 306.667,62.400 312.600 C 62.400 317.844,62.308 318.800,61.800 318.800 C 61.277 318.800,61.200 320.867,61.200 335.000 C 61.200 349.133,61.277 351.200,61.800 351.200 C 62.310 351.200,62.400 352.226,62.400 358.037 C 62.400 364.538,62.439 364.885,63.200 365.084 C 63.928 365.275,64.000 365.630,64.000 369.047 C 64.000 372.533,64.057 372.800,64.800 372.800 C 65.544 372.800,65.600 373.067,65.600 376.600 C 65.600 380.133,65.656 380.400,66.400 380.400 C 67.133 380.400,67.200 380.667,67.200 383.600 C 67.200 386.533,67.267 386.800,68.000 386.800 C 68.703 386.800,68.800 387.067,68.800 389.000 C 68.800 390.933,68.897 391.200,69.600 391.200 C 70.311 391.200,70.400 391.467,70.400 393.600 C 70.400 395.733,70.489 396.000,71.200 396.000 C 71.903 396.000,72.000 396.267,72.000 398.200 C 72.000 399.889,72.139 400.400,72.600 400.400 C 73.067 400.400,73.200 400.933,73.200 402.800 C 73.200 404.933,73.289 405.200,74.000 405.200 C 74.667 405.200,74.800 405.467,74.800 406.800 C 74.800 408.133,74.933 408.400,75.600 408.400 C 76.248 408.400,76.400 408.667,76.400 409.800 C 76.400 410.933,76.552 411.200,77.200 411.200 C 77.911 411.200,78.000 411.467,78.000 413.600 C 78.000 415.733,78.089 416.000,78.800 416.000 C 79.467 416.000,79.600 416.267,79.600 417.600 C 79.600 418.933,79.733 419.200,80.400 419.200 C 81.045 419.200,81.200 419.467,81.200 420.573 C 81.200 421.595,81.405 422.011,82.000 422.200 C 82.440 422.340,82.800 422.712,82.800 423.027 C 82.800 423.342,83.070 423.600,83.400 423.600 C 83.833 423.600,84.000 424.044,84.000 425.200 C 84.000 426.533,84.133 426.800,84.800 426.800 C 85.467 426.800,85.600 427.067,85.600 428.400 C 85.600 429.733,85.733 430.000,86.400 430.000 C 87.052 430.000,87.200 430.267,87.200 431.437 C 87.200 432.538,87.387 432.924,88.000 433.084 C 88.440 433.199,88.800 433.542,88.800 433.847 C 88.800 434.151,89.160 434.400,89.600 434.400 C 90.267 434.400,90.400 434.667,90.400 436.000 C 90.400 437.333,90.533 437.600,91.200 437.600 C 91.733 437.600,92.000 437.867,92.000 438.400 C 92.000 438.933,92.267 439.200,92.800 439.200 C 93.467 439.200,93.600 439.467,93.600 440.800 C 93.600 441.896,93.774 442.400,94.153 442.400 C 94.458 442.400,94.801 442.760,94.916 443.200 C 95.031 443.640,95.412 444.000,95.763 444.000 C 96.113 444.000,96.400 444.270,96.400 444.600 C 96.400 444.933,96.756 445.200,97.200 445.200 C 97.867 445.200,98.000 445.467,98.000 446.800 C 98.000 448.133,98.133 448.400,98.800 448.400 C 99.333 448.400,99.600 448.667,99.600 449.200 C 99.600 449.733,99.867 450.000,100.400 450.000 C 100.933 450.000,101.200 450.267,101.200 450.800 C 101.200 451.333,101.467 451.600,102.000 451.600 C 102.667 451.600,102.800 451.867,102.800 453.200 C 102.800 454.533,102.933 454.800,103.600 454.800 C 104.044 454.800,104.400 455.067,104.400 455.400 C 104.400 455.730,104.658 456.000,104.973 456.000 C 105.288 456.000,105.660 456.360,105.800 456.800 C 105.940 457.240,106.312 457.600,106.627 457.600 C 106.942 457.600,107.200 457.960,107.200 458.400 C 107.200 458.933,107.467 459.200,108.000 459.200 C 108.533 459.200,108.800 459.467,108.800 460.000 C 108.800 460.533,109.067 460.800,109.600 460.800 C 110.133 460.800,110.400 461.067,110.400 461.600 C 110.400 462.133,110.667 462.400,111.200 462.400 C 111.867 462.400,112.000 462.667,112.000 464.000 C 112.000 465.333,112.133 465.600,112.800 465.600 C 113.244 465.600,113.600 465.867,113.600 466.200 C 113.600 466.533,113.956 466.800,114.400 466.800 C 114.933 466.800,115.200 467.067,115.200 467.600 C 115.200 468.248,115.467 468.400,116.600 468.400 C 117.733 468.400,118.000 468.552,118.000 469.200 C 118.000 469.733,118.267 470.000,118.800 470.000 C 119.333 470.000,119.600 470.267,119.600 470.800 C 119.600 471.333,119.867 471.600,120.400 471.600 C 120.933 471.600,121.200 471.867,121.200 472.400 C 121.200 472.933,121.467 473.200,122.000 473.200 C 122.533 473.200,122.800 473.467,122.800 474.000 C 122.800 474.533,123.067 474.800,123.600 474.800 C 124.133 474.800,124.400 475.067,124.400 475.600 C 124.400 476.133,124.667 476.400,125.200 476.400 C 125.644 476.400,126.000 476.667,126.000 477.000 C 126.000 477.333,126.356 477.600,126.800 477.600 C 127.333 477.600,127.600 477.867,127.600 478.400 C 127.600 479.048,127.867 479.200,129.000 479.200 C 130.133 479.200,130.400 479.352,130.400 480.000 C 130.400 480.533,130.667 480.800,131.200 480.800 C 131.733 480.800,132.000 481.067,132.000 481.600 C 132.000 482.133,132.267 482.400,132.800 482.400 C 133.333 482.400,133.600 482.667,133.600 483.200 C 133.600 483.733,133.867 484.000,134.400 484.000 C 134.933 484.000,135.200 484.267,135.200 484.800 C 135.200 485.467,135.467 485.600,136.800 485.600 C 138.133 485.600,138.400 485.733,138.400 486.400 C 138.400 486.844,138.667 487.200,139.000 487.200 C 139.330 487.200,139.600 487.470,139.600 487.800 C 139.600 488.233,140.044 488.400,141.200 488.400 C 142.533 488.400,142.800 488.533,142.800 489.200 C 142.800 489.733,143.067 490.000,143.600 490.000 C 144.133 490.000,144.400 490.267,144.400 490.800 C 144.400 491.467,144.667 491.600,146.000 491.600 C 147.333 491.600,147.600 491.733,147.600 492.400 C 147.600 493.048,147.867 493.200,149.000 493.200 C 150.014 493.200,150.400 493.376,150.400 493.837 C 150.400 494.188,150.760 494.569,151.200 494.684 C 151.643 494.800,152.000 495.230,152.000 495.647 C 152.000 496.259,152.300 496.400,153.600 496.400 C 154.933 496.400,155.200 496.533,155.200 497.200 C 155.200 497.867,155.467 498.000,156.800 498.000 C 157.956 498.000,158.400 498.167,158.400 498.600 C 158.400 499.015,158.817 499.200,159.753 499.200 C 160.770 499.200,161.159 499.399,161.316 500.000 C 161.476 500.613,161.862 500.800,162.963 500.800 C 164.133 500.800,164.400 500.948,164.400 501.600 C 164.400 502.267,164.667 502.400,166.000 502.400 C 167.333 502.400,167.600 502.533,167.600 503.200 C 167.600 503.911,167.867 504.000,170.000 504.000 C 172.133 504.000,172.400 504.089,172.400 504.800 C 172.400 505.448,172.667 505.600,173.800 505.600 C 174.933 505.600,175.200 505.752,175.200 506.400 C 175.200 507.111,175.467 507.200,177.600 507.200 C 179.733 507.200,180.000 507.289,180.000 508.000 C 180.000 508.667,180.267 508.800,181.600 508.800 C 182.756 508.800,183.200 508.967,183.200 509.400 C 183.200 509.861,183.711 510.000,185.400 510.000 C 187.333 510.000,187.600 510.097,187.600 510.800 C 187.600 511.511,187.867 511.600,190.000 511.600 C 192.133 511.600,192.400 511.689,192.400 512.400 C 192.400 513.144,192.667 513.200,196.200 513.200 C 199.733 513.200,200.000 513.256,200.000 514.000 C 200.000 514.744,200.267 514.800,203.800 514.800 C 207.333 514.800,207.600 514.856,207.600 515.600 C 207.600 516.353,207.867 516.400,212.153 516.400 C 216.370 516.400,216.722 516.459,216.916 517.200 C 217.246 518.461,264.800 518.461,264.800 517.200 C 264.800 516.446,265.067 516.400,269.400 516.400 C 273.733 516.400,274.000 516.354,274.000 515.600 C 274.000 514.853,274.267 514.800,278.000 514.800 C 281.733 514.800,282.000 514.747,282.000 514.000 C 282.000 513.256,282.267 513.200,285.800 513.200 C 289.333 513.200,289.600 513.144,289.600 512.400 C 289.600 511.698,289.867 511.600,291.773 511.600 C 293.595 511.600,293.987 511.471,294.200 510.800 C 294.413 510.129,294.805 510.000,296.627 510.000 C 298.292 510.000,298.800 509.860,298.800 509.400 C 298.800 508.938,299.315 508.800,301.037 508.800 C 302.938 508.800,303.306 508.680,303.484 508.000 C 303.661 507.325,304.030 507.200,305.847 507.200 C 307.733 507.200,308.000 507.101,308.000 506.400 C 308.000 505.733,308.267 505.600,309.600 505.600 C 310.933 505.600,311.200 505.467,311.200 504.800 C 311.200 504.089,311.467 504.000,313.600 504.000 C 315.733 504.000,316.000 503.911,316.000 503.200 C 316.000 502.756,316.267 502.400,316.600 502.400 C 316.933 502.400,317.200 502.044,317.200 501.600 C 317.200 500.889,317.467 500.800,319.600 500.800 C 321.733 500.800,322.000 500.711,322.000 500.000 C 322.000 499.333,322.267 499.200,323.600 499.200 C 324.756 499.200,325.200 499.033,325.200 498.600 C 325.200 498.181,325.622 498.000,326.600 498.000 C 327.733 498.000,328.000 497.848,328.000 497.200 C 328.000 496.667,328.267 496.400,328.800 496.400 C 329.333 496.400,329.600 496.133,329.600 495.600 C 329.600 494.933,329.867 494.800,331.200 494.800 C 332.533 494.800,332.800 494.667,332.800 494.000 C 332.800 493.333,333.067 493.200,334.400 493.200 C 335.700 493.200,336.000 493.059,336.000 492.447 C 336.000 492.030,336.357 491.600,336.800 491.484 C 337.240 491.369,337.600 490.988,337.600 490.637 C 337.600 490.176,337.986 490.000,339.000 490.000 C 340.133 490.000,340.400 489.848,340.400 489.200 C 340.400 488.667,340.667 488.400,341.200 488.400 C 341.644 488.400,342.000 488.133,342.000 487.800 C 342.000 487.367,342.444 487.200,343.600 487.200 C 344.933 487.200,345.200 487.067,345.200 486.400 C 345.200 485.867,345.467 485.600,346.000 485.600 C 346.533 485.600,346.800 485.333,346.800 484.800 C 346.800 484.267,347.067 484.000,347.600 484.000 C 348.133 484.000,348.400 483.733,348.400 483.200 C 348.400 482.552,348.667 482.400,349.800 482.400 C 350.933 482.400,351.200 482.248,351.200 481.600 C 351.200 481.067,351.467 480.800,352.000 480.800 C 352.533 480.800,352.800 480.533,352.800 480.000 C 352.800 479.467,353.067 479.200,353.600 479.200 C 354.133 479.200,354.400 478.933,354.400 478.400 C 354.400 477.867,354.667 477.600,355.200 477.600 C 355.640 477.600,356.000 477.351,356.000 477.047 C 356.000 476.742,356.360 476.399,356.800 476.284 C 357.240 476.169,357.600 475.799,357.600 475.462 C 357.600 475.042,358.073 474.809,359.100 474.724 C 360.519 474.607,360.607 474.519,360.724 473.100 C 360.842 471.681,360.923 471.600,362.224 471.600 C 363.333 471.600,363.600 471.445,363.600 470.800 C 363.600 470.267,363.867 470.000,364.400 470.000 C 364.933 470.000,365.200 469.733,365.200 469.200 C 365.200 468.667,365.467 468.400,366.000 468.400 C 366.533 468.400,366.800 468.133,366.800 467.600 C 366.800 467.067,367.067 466.800,367.600 466.800 C 368.040 466.800,368.400 466.551,368.400 466.247 C 368.400 465.942,368.760 465.599,369.200 465.484 C 369.806 465.325,370.000 464.938,370.000 463.884 C 370.000 462.830,370.194 462.443,370.800 462.284 C 371.240 462.169,371.600 461.788,371.600 461.437 C 371.600 461.087,371.870 460.800,372.200 460.800 C 372.533 460.800,372.800 460.444,372.800 460.000 C 372.800 459.467,373.067 459.200,373.600 459.200 C 374.133 459.200,374.400 458.933,374.400 458.400 C 374.400 457.867,374.667 457.600,375.200 457.600 C 375.733 457.600,376.000 457.333,376.000 456.800 C 376.000 456.267,376.267 456.000,376.800 456.000 C 377.240 456.000,377.600 455.751,377.600 455.447 C 377.600 455.142,377.960 454.799,378.400 454.684 C 378.840 454.569,379.200 454.188,379.200 453.837 C 379.200 453.467,379.535 453.200,380.000 453.200 C 380.667 453.200,380.800 452.933,380.800 451.600 C 380.800 450.267,380.933 450.000,381.600 450.000 C 382.133 450.000,382.400 449.733,382.400 449.200 C 382.400 448.756,382.667 448.400,383.000 448.400 C 383.333 448.400,383.600 448.044,383.600 447.600 C 383.600 447.067,383.867 446.800,384.400 446.800 C 385.048 446.800,385.200 446.533,385.200 445.400 C 385.200 444.386,385.376 444.000,385.837 444.000 C 386.188 444.000,386.569 443.640,386.684 443.200 C 386.800 442.757,387.230 442.400,387.647 442.400 C 388.259 442.400,388.400 442.100,388.400 440.800 C 388.400 439.467,388.533 439.200,389.200 439.200 C 389.867 439.200,390.000 438.933,390.000 437.600 C 390.000 436.267,390.133 436.000,390.800 436.000 C 391.333 436.000,391.600 435.733,391.600 435.200 C 391.600 434.667,391.867 434.400,392.400 434.400 C 393.048 434.400,393.200 434.133,393.200 433.000 C 393.200 432.022,393.381 431.600,393.800 431.600 C 394.233 431.600,394.400 431.156,394.400 430.000 C 394.400 428.667,394.533 428.400,395.200 428.400 C 395.867 428.400,396.000 428.133,396.000 426.800 C 396.000 425.467,396.133 425.200,396.800 425.200 C 397.445 425.200,397.600 424.933,397.600 423.827 C 397.600 422.805,397.805 422.389,398.400 422.200 C 398.995 422.011,399.200 421.595,399.200 420.573 C 399.200 419.818,399.380 419.200,399.600 419.200 C 399.833 419.200,400.000 417.867,400.000 416.000 C 400.000 414.133,399.833 412.800,399.600 412.800 C 399.380 412.800,399.200 411.810,399.200 410.600 C 399.200 408.667,399.103 408.400,398.400 408.400 C 397.733 408.400,397.600 408.133,397.600 406.800 C 397.600 405.467,397.467 405.200,396.800 405.200 C 396.098 405.200,396.000 404.933,396.000 403.027 C 396.000 401.205,395.871 400.813,395.200 400.600 C 394.495 400.376,394.400 399.995,394.400 397.373 C 394.400 394.997,394.280 394.400,393.800 394.400 C 393.340 394.400,393.200 393.892,393.200 392.227 C 393.200 390.405,393.071 390.013,392.400 389.800 C 391.695 389.576,391.600 389.195,391.600 386.573 C 391.600 383.867,391.528 383.600,390.800 383.600 C 390.056 383.600,390.000 383.333,390.000 379.800 C 390.000 376.267,389.944 376.000,389.200 376.000 C 388.446 376.000,388.400 375.733,388.400 371.400 C 388.400 367.067,388.354 366.800,387.600 366.800 C 386.825 366.800,386.800 366.533,386.800 358.200 C 386.800 349.867,386.775 349.600,386.000 349.600 C 385.218 349.600,385.200 349.333,385.200 338.000 C 385.200 326.667,385.218 326.400,386.000 326.400 C 386.770 326.400,386.800 326.133,386.800 319.400 C 386.800 312.667,386.830 312.400,387.600 312.400 C 388.364 312.400,388.400 312.133,388.400 306.400 C 388.400 300.667,388.436 300.400,389.200 300.400 C 389.933 300.400,390.000 300.133,390.000 297.200 C 390.000 294.267,390.067 294.000,390.800 294.000 C 391.544 294.000,391.600 293.733,391.600 290.200 C 391.600 286.667,391.656 286.400,392.400 286.400 C 393.111 286.400,393.200 286.133,393.200 284.000 C 393.200 282.133,393.333 281.600,393.800 281.600 C 394.261 281.600,394.400 281.089,394.400 279.400 C 394.400 277.467,394.497 277.200,395.200 277.200 C 395.911 277.200,396.000 276.933,396.000 274.800 C 396.000 272.667,396.089 272.400,396.800 272.400 C 397.503 272.400,397.600 272.133,397.600 270.200 C 397.600 268.267,397.697 268.000,398.400 268.000 C 399.067 268.000,399.200 267.733,399.200 266.400 C 399.200 265.520,399.380 264.800,399.600 264.800 C 399.847 264.800,400.000 262.733,400.000 259.400 C 400.000 256.067,399.847 254.000,399.600 254.000 C 399.380 254.000,399.200 253.280,399.200 252.400 C 399.200 251.067,399.067 250.800,398.400 250.800 C 397.733 250.800,397.600 250.533,397.600 249.200 C 397.600 247.867,397.467 247.600,396.800 247.600 C 396.152 247.600,396.000 247.333,396.000 246.200 C 396.000 245.067,395.848 244.800,395.200 244.800 C 394.667 244.800,394.400 244.533,394.400 244.000 C 394.400 243.556,394.133 243.200,393.800 243.200 C 393.367 243.200,393.200 242.756,393.200 241.600 C 393.200 240.267,393.067 240.000,392.400 240.000 C 391.748 240.000,391.600 239.733,391.600 238.563 C 391.600 237.462,391.413 237.076,390.800 236.916 C 390.199 236.759,390.000 236.370,390.000 235.353 C 390.000 234.267,389.842 234.000,389.200 234.000 C 388.667 234.000,388.400 233.733,388.400 233.200 C 388.400 232.667,388.133 232.400,387.600 232.400 C 387.067 232.400,386.800 232.133,386.800 231.600 C 386.800 231.067,386.533 230.800,386.000 230.800 C 385.333 230.800,385.200 230.533,385.200 229.200 C 385.200 227.867,385.067 227.600,384.400 227.600 C 383.867 227.600,383.600 227.333,383.600 226.800 C 383.600 226.356,383.333 226.000,383.000 226.000 C 382.581 226.000,382.400 225.578,382.400 224.600 C 382.400 223.467,382.248 223.200,381.600 223.200 C 381.067 223.200,380.800 222.933,380.800 222.400 C 380.800 221.867,380.533 221.600,380.000 221.600 C 379.467 221.600,379.200 221.333,379.200 220.800 C 379.200 220.267,378.933 220.000,378.400 220.000 C 377.733 220.000,377.600 219.733,377.600 218.400 C 377.600 217.067,377.467 216.800,376.800 216.800 C 376.267 216.800,376.000 216.533,376.000 216.000 C 376.000 215.467,375.733 215.200,375.200 215.200 C 374.756 215.200,374.400 214.933,374.400 214.600 C 374.400 214.267,374.044 214.000,373.600 214.000 C 373.067 214.000,372.800 213.733,372.800 213.200 C 372.800 212.756,372.533 212.400,372.200 212.400 C 371.867 212.400,371.600 212.044,371.600 211.600 C 371.600 211.067,371.333 210.800,370.800 210.800 C 370.335 210.800,370.000 210.533,370.000 210.163 C 370.000 209.812,369.640 209.431,369.200 209.316 C 368.757 209.200,368.400 208.770,368.400 208.353 C 368.400 207.867,368.117 207.600,367.600 207.600 C 366.933 207.600,366.800 207.333,366.800 206.000 C 366.800 204.667,366.667 204.400,366.000 204.400 C 365.556 204.400,365.200 204.133,365.200 203.800 C 365.200 203.367,364.756 203.200,363.600 203.200 C 362.267 203.200,362.000 203.067,362.000 202.400 C 362.000 201.956,361.733 201.600,361.400 201.600 C 361.070 201.600,360.800 201.313,360.800 200.963 C 360.800 200.612,360.440 200.231,360.000 200.116 C 359.560 200.001,359.200 199.641,359.200 199.316 C 359.200 198.991,358.840 198.631,358.400 198.516 C 357.957 198.400,357.600 197.970,357.600 197.553 C 357.600 197.067,357.317 196.800,356.800 196.800 C 356.267 196.800,356.000 196.533,356.000 196.000 C 356.000 195.467,355.733 195.200,355.200 195.200 C 354.667 195.200,354.400 194.933,354.400 194.400 C 354.400 193.867,354.133 193.600,353.600 193.600 C 353.160 193.600,352.800 193.333,352.800 193.008 C 352.800 192.347,351.127 191.789,350.206 192.142 C 349.878 192.268,349.629 192.243,349.652 192.086 C 349.774 191.267,349.537 190.800,349.000 190.800 C 348.667 190.800,348.400 190.444,348.400 190.000 C 348.400 189.467,348.133 189.200,347.600 189.200 C 347.067 189.200,346.800 188.933,346.800 188.400 C 346.800 187.733,346.533 187.600,345.200 187.600 C 343.867 187.600,343.600 187.467,343.600 186.800 C 343.600 186.267,343.333 186.000,342.800 186.000 C 342.267 186.000,342.000 185.733,342.000 185.200 C 342.000 184.533,341.733 184.400,340.400 184.400 C 339.067 184.400,338.800 184.267,338.800 183.600 C 338.800 183.156,338.533 182.800,338.200 182.800 C 337.870 182.800,337.600 182.549,337.600 182.243 C 337.600 181.598,336.748 181.200,335.367 181.200 C 334.774 181.200,334.400 180.968,334.400 180.600 C 334.400 180.267,334.044 180.000,333.600 180.000 C 333.067 180.000,332.800 179.733,332.800 179.200 C 332.800 178.533,332.533 178.400,331.200 178.400 C 329.867 178.400,329.600 178.267,329.600 177.600 C 329.600 176.952,329.333 176.800,328.200 176.800 C 327.067 176.800,326.800 176.648,326.800 176.000 C 326.800 175.333,326.533 175.200,325.200 175.200 C 323.867 175.200,323.600 175.067,323.600 174.400 C 323.600 173.733,323.333 173.600,322.000 173.600 C 320.667 173.600,320.400 173.467,320.400 172.800 C 320.400 172.133,320.133 172.000,318.800 172.000 C 317.467 172.000,317.200 171.867,317.200 171.200 C 317.200 170.552,316.933 170.400,315.800 170.400 C 314.822 170.400,314.400 170.219,314.400 169.800 C 314.400 169.367,313.956 169.200,312.800 169.200 C 311.467 169.200,311.200 169.067,311.200 168.400 C 311.200 167.689,310.933 167.600,308.800 167.600 C 306.667 167.600,306.400 167.511,306.400 166.800 C 306.400 166.152,306.133 166.000,305.000 166.000 C 303.867 166.000,303.600 165.848,303.600 165.200 C 303.600 164.489,303.333 164.400,301.200 164.400 C 299.067 164.400,298.800 164.311,298.800 163.600 C 298.800 162.898,298.533 162.800,296.627 162.800 C 294.805 162.800,294.413 162.671,294.200 162.000 C 293.988 161.332,293.595 161.200,291.820 161.200 C 290.030 161.200,289.660 161.073,289.484 160.400 C 289.298 159.689,288.938 159.600,286.237 159.600 C 283.804 159.600,283.200 159.481,283.200 159.000 C 283.200 158.509,282.511 158.400,279.400 158.400 C 275.867 158.400,275.600 158.344,275.600 157.600 C 275.600 156.856,275.333 156.800,271.800 156.800 C 268.267 156.800,268.000 156.744,268.000 156.000 C 268.000 155.227,267.733 155.200,260.200 155.200 C 252.667 155.200,252.400 155.173,252.400 154.400 C 252.400 153.625,252.133 153.600,244.000 153.600 C 235.867 153.600,235.600 153.625,235.600 154.400 M121.700 561.465 C 120.793 561.831,121.156 562.800,122.200 562.800 C 122.933 562.800,123.200 562.587,123.200 562.000 C 123.200 561.222,122.723 561.052,121.700 561.465 M131.600 562.000 C 131.600 562.587,131.867 562.800,132.600 562.800 C 133.333 562.800,133.600 562.587,133.600 562.000 C 133.600 561.413,133.333 561.200,132.600 561.200 C 131.867 561.200,131.600 561.413,131.600 562.000 M139.600 563.600 C 139.600 564.133,139.867 564.400,140.400 564.400 C 140.933 564.400,141.200 564.133,141.200 563.600 C 141.200 563.067,140.933 562.800,140.400 562.800 C 139.867 562.800,139.600 563.067,139.600 563.600 M108.800 565.200 C 108.800 565.787,109.067 566.000,109.800 566.000 C 110.533 566.000,110.800 565.787,110.800 565.200 C 110.800 564.613,110.533 564.400,109.800 564.400 C 109.067 564.400,108.800 564.613,108.800 565.200 M106.000 566.600 C 106.000 567.333,106.213 567.600,106.800 567.600 C 107.387 567.600,107.600 567.333,107.600 566.600 C 107.600 565.867,107.387 565.600,106.800 565.600 C 106.213 565.600,106.000 565.867,106.000 566.600 M99.600 571.200 C 99.600 571.733,99.867 572.000,100.400 572.000 C 100.933 572.000,101.200 571.733,101.200 571.200 C 101.200 570.667,100.933 570.400,100.400 570.400 C 99.867 570.400,99.600 570.667,99.600 571.200 M19.200 580.400 C 19.200 581.022,19.467 581.200,20.400 581.200 C 21.333 581.200,21.600 581.022,21.600 580.400 C 21.600 579.778,21.333 579.600,20.400 579.600 C 19.467 579.600,19.200 579.778,19.200 580.400 M4.267 589.067 C 3.670 589.663,4.020 590.800,4.800 590.800 C 5.387 590.800,5.600 590.533,5.600 589.800 C 5.600 588.859,4.874 588.459,4.267 589.067 M51.600 592.800 C 51.600 593.333,51.867 593.600,52.400 593.600 C 52.840 593.600,53.200 593.420,53.200 593.200 C 53.200 592.980,52.975 592.797,52.700 592.794 C 52.367 592.790,52.400 592.658,52.800 592.400 C 53.285 592.086,53.228 592.011,52.500 592.006 C 51.865 592.002,51.600 592.235,51.600 592.800 M167.490 592.777 C 167.248 593.705,167.483 594.000,168.467 594.000 C 168.982 594.000,169.200 593.703,169.200 593.000 C 169.200 591.772,167.801 591.590,167.490 592.777 M0.000 601.200 C 0.000 602.080,0.159 602.800,0.353 602.800 C 0.837 602.800,1.171 601.375,0.916 600.400 C 0.558 599.033,0.000 599.521,0.000 601.200 M64.116 606.886 C 64.147 607.285,64.486 607.600,64.885 607.600 C 65.305 607.600,65.600 607.305,65.600 606.886 C 65.600 606.448,65.303 606.171,64.831 606.171 C 64.340 606.171,64.082 606.429,64.116 606.886 M166.000 617.371 C 166.000 618.145,166.205 618.400,166.828 618.400 C 167.457 618.400,167.625 618.185,167.528 617.504 C 167.338 616.175,166.000 616.058,166.000 617.371 M155.200 632.800 C 155.200 633.333,155.467 633.600,156.000 633.600 C 156.533 633.600,156.800 633.333,156.800 632.800 C 156.800 632.267,156.533 632.000,156.000 632.000 C 155.467 632.000,155.200 632.267,155.200 632.800 M152.000 636.000 C 152.000 636.543,151.733 636.800,151.171 636.800 C 150.598 636.800,150.383 637.015,150.475 637.495 C 150.605 638.169,152.080 638.799,151.963 638.131 C 151.805 637.228,152.074 636.800,152.800 636.800 C 153.333 636.800,153.600 636.533,153.600 636.000 C 153.600 635.467,153.333 635.200,152.800 635.200 C 152.267 635.200,152.000 635.467,152.000 636.000 M148.958 638.700 C 148.839 639.085,148.583 639.699,148.390 640.064 C 148.141 640.533,148.222 640.800,148.663 640.969 C 149.092 641.133,149.221 641.031,149.072 640.644 C 148.942 640.305,149.165 639.998,149.628 639.877 C 150.081 639.758,150.400 639.328,150.400 638.837 C 150.400 637.816,149.265 637.708,148.958 638.700 M144.400 643.600 C 144.400 644.481,144.450 644.509,145.367 644.157 C 146.274 643.809,146.149 642.800,145.200 642.800 C 144.667 642.800,144.400 643.067,144.400 643.600 M128.800 659.200 C 128.800 659.733,129.067 660.000,129.600 660.000 C 130.133 660.000,130.400 659.733,130.400 659.200 C 130.400 658.667,130.133 658.400,129.600 658.400 C 129.067 658.400,128.800 658.667,128.800 659.200 M144.400 680.800 C 144.400 681.333,144.667 681.600,145.200 681.600 C 145.733 681.600,146.000 681.333,146.000 680.800 C 146.000 680.267,145.733 680.000,145.200 680.000 C 144.667 680.000,144.400 680.267,144.400 680.800 M149.232 691.433 C 149.213 691.921,149.449 692.267,149.800 692.267 C 150.143 692.267,150.397 691.910,150.394 691.433 C 150.389 690.810,150.301 690.738,150.042 691.145 C 149.751 691.606,149.663 691.606,149.480 691.145 C 149.348 690.812,149.251 690.925,149.232 691.433 M148.876 706.700 C 148.950 707.085,149.276 707.400,149.600 707.400 C 149.924 707.400,150.250 707.085,150.324 706.700 C 150.418 706.209,150.202 706.000,149.600 706.000 C 148.998 706.000,148.782 706.209,148.876 706.700 M4.000 716.200 C 4.000 716.933,4.213 717.200,4.800 717.200 C 5.244 717.200,5.600 717.467,5.600 717.800 C 5.600 718.130,5.870 718.400,6.200 718.400 C 6.554 718.400,6.803 718.769,6.806 719.300 C 6.811 720.028,6.886 720.085,7.200 719.600 C 7.458 719.200,7.590 719.167,7.594 719.500 C 7.597 719.775,7.780 720.000,8.000 720.000 C 8.220 720.000,8.400 719.640,8.400 719.200 C 8.400 718.756,8.133 718.400,7.800 718.400 C 7.470 718.400,7.200 718.113,7.200 717.763 C 7.200 717.412,6.840 717.031,6.400 716.916 C 5.957 716.800,5.600 716.370,5.600 715.953 C 5.600 715.467,5.317 715.200,4.800 715.200 C 4.213 715.200,4.000 715.467,4.000 716.200 M11.711 722.413 C 11.785 723.400,12.930 723.305,13.125 722.295 C 13.216 721.821,13.003 721.600,12.454 721.600 C 11.892 721.600,11.668 721.845,11.711 722.413 M136.400 722.428 C 136.400 723.049,136.616 723.224,137.264 723.128 C 138.515 722.943,138.604 721.600,137.365 721.600 C 136.656 721.600,136.400 721.820,136.400 722.428 M14.800 723.600 C 14.800 723.820,15.160 724.000,15.600 724.000 C 16.040 724.000,16.400 723.820,16.400 723.600 C 16.400 723.380,16.040 723.200,15.600 723.200 C 15.160 723.200,14.800 723.380,14.800 723.600 " stroke="none" fill="#fa343b" fill-rule="evenodd"></path></g></svg>